ISO-10303-21;
HEADER;
/* Generated by software containing ST-Developer
 * from STEP Tools, Inc. (www.steptools.com) 
 */

FILE_DESCRIPTION(
/* description */ (''),
/* implementation_level */ '2;1');

FILE_NAME(
/* name */ 'Horizontal Arm.step',
/* time_stamp */ '2026-07-25T10:07:28-04:00',
/* author */ (''),
/* organization */ (''),
/* preprocessor_version */ 'ST-DEVELOPER v20.1',
/* originating_system */ 'Autodesk Translation Framework v15.8.0.0',
/* authorisation */ '');

FILE_SCHEMA (('AUTOMOTIVE_DESIGN { 1 0 10303 214 3 1 1 }'));
ENDSEC;

DATA;
#10=MECHANICAL_DESIGN_GEOMETRIC_PRESENTATION_REPRESENTATION('',(#13,#14,
#15),#741);
#11=SHAPE_REPRESENTATION_RELATIONSHIP('SRR','None',#748,#12);
#12=ADVANCED_BREP_SHAPE_REPRESENTATION('',(#16,#17,#18),#740);
#13=STYLED_ITEM('',(#757),#16);
#14=STYLED_ITEM('',(#757),#17);
#15=STYLED_ITEM('',(#757),#18);
#16=MANIFOLD_SOLID_BREP('Body1',#399);
#17=MANIFOLD_SOLID_BREP('Body2',#400);
#18=MANIFOLD_SOLID_BREP('Body3',#401);
#19=FACE_BOUND('',#75,.T.);
#20=FACE_BOUND('',#78,.T.);
#21=FACE_BOUND('',#83,.T.);
#22=FACE_BOUND('',#96,.T.);
#23=FACE_BOUND('',#99,.T.);
#24=FACE_BOUND('',#104,.T.);
#25=PLANE('',#424);
#26=PLANE('',#429);
#27=PLANE('',#438);
#28=PLANE('',#442);
#29=PLANE('',#450);
#30=PLANE('',#453);
#31=PLANE('',#454);
#32=PLANE('',#464);
#33=PLANE('',#469);
#34=PLANE('',#478);
#35=TOROIDAL_SURFACE('',#418,23.,2.);
#36=TOROIDAL_SURFACE('',#426,23.,2.);
#37=TOROIDAL_SURFACE('',#430,22.,2.);
#38=TOROIDAL_SURFACE('',#435,18.,2.);
#39=TOROIDAL_SURFACE('',#458,23.,2.);
#40=TOROIDAL_SURFACE('',#466,23.,2.);
#41=TOROIDAL_SURFACE('',#470,22.,2.);
#42=TOROIDAL_SURFACE('',#475,18.,2.);
#43=FACE_OUTER_BOUND('',#71,.T.);
#44=FACE_OUTER_BOUND('',#72,.T.);
#45=FACE_OUTER_BOUND('',#73,.T.);
#46=FACE_OUTER_BOUND('',#74,.T.);
#47=FACE_OUTER_BOUND('',#76,.T.);
#48=FACE_OUTER_BOUND('',#77,.T.);
#49=FACE_OUTER_BOUND('',#79,.T.);
#50=FACE_OUTER_BOUND('',#80,.T.);
#51=FACE_OUTER_BOUND('',#81,.T.);
#52=FACE_OUTER_BOUND('',#82,.T.);
#53=FACE_OUTER_BOUND('',#84,.T.);
#54=FACE_OUTER_BOUND('',#85,.T.);
#55=FACE_OUTER_BOUND('',#86,.T.);
#56=FACE_OUTER_BOUND('',#87,.T.);
#57=FACE_OUTER_BOUND('',#88,.T.);
#58=FACE_OUTER_BOUND('',#89,.T.);
#59=FACE_OUTER_BOUND('',#90,.T.);
#60=FACE_OUTER_BOUND('',#91,.T.);
#61=FACE_OUTER_BOUND('',#92,.T.);
#62=FACE_OUTER_BOUND('',#93,.T.);
#63=FACE_OUTER_BOUND('',#94,.T.);
#64=FACE_OUTER_BOUND('',#95,.T.);
#65=FACE_OUTER_BOUND('',#97,.T.);
#66=FACE_OUTER_BOUND('',#98,.T.);
#67=FACE_OUTER_BOUND('',#100,.T.);
#68=FACE_OUTER_BOUND('',#101,.T.);
#69=FACE_OUTER_BOUND('',#102,.T.);
#70=FACE_OUTER_BOUND('',#103,.T.);
#71=EDGE_LOOP('',(#257,#258,#259,#260));
#72=EDGE_LOOP('',(#261,#262,#263,#264));
#73=EDGE_LOOP('',(#265,#266,#267,#268));
#74=EDGE_LOOP('',(#269));
#75=EDGE_LOOP('',(#270));
#76=EDGE_LOOP('',(#271,#272,#273,#274));
#77=EDGE_LOOP('',(#275));
#78=EDGE_LOOP('',(#276));
#79=EDGE_LOOP('',(#277,#278,#279,#280));
#80=EDGE_LOOP('',(#281,#282,#283,#284));
#81=EDGE_LOOP('',(#285,#286,#287,#288));
#82=EDGE_LOOP('',(#289));
#83=EDGE_LOOP('',(#290));
#84=EDGE_LOOP('',(#291,#292,#293,#294));
#85=EDGE_LOOP('',(#295,#296,#297,#298,#299,#300));
#86=EDGE_LOOP('',(#301,#302,#303,#304));
#87=EDGE_LOOP('',(#305,#306,#307,#308));
#88=EDGE_LOOP('',(#309,#310,#311,#312,#313,#314));
#89=EDGE_LOOP('',(#315,#316,#317,#318));
#90=EDGE_LOOP('',(#319,#320,#321,#322));
#91=EDGE_LOOP('',(#323,#324,#325,#326));
#92=EDGE_LOOP('',(#327,#328,#329,#330));
#93=EDGE_LOOP('',(#331,#332,#333,#334));
#94=EDGE_LOOP('',(#335,#336,#337,#338));
#95=EDGE_LOOP('',(#339));
#96=EDGE_LOOP('',(#340));
#97=EDGE_LOOP('',(#341,#342,#343,#344));
#98=EDGE_LOOP('',(#345));
#99=EDGE_LOOP('',(#346));
#100=EDGE_LOOP('',(#347,#348,#349,#350));
#101=EDGE_LOOP('',(#351,#352,#353,#354));
#102=EDGE_LOOP('',(#355,#356,#357,#358));
#103=EDGE_LOOP('',(#359));
#104=EDGE_LOOP('',(#360));
#105=LINE('',#630,#121);
#106=LINE('',#641,#122);
#107=LINE('',#656,#123);
#108=LINE('',#668,#124);
#109=LINE('',#671,#125);
#110=LINE('',#676,#126);
#111=LINE('',#681,#127);
#112=LINE('',#685,#128);
#113=LINE('',#690,#129);
#114=LINE('',#691,#130);
#115=LINE('',#693,#131);
#116=LINE('',#696,#132);
#117=LINE('',#698,#133);
#118=LINE('',#705,#134);
#119=LINE('',#716,#135);
#120=LINE('',#731,#136);
#121=VECTOR('',#485,1.65);
#122=VECTOR('',#500,25.);
#123=VECTOR('',#521,20.);
#124=VECTOR('',#536,10.);
#125=VECTOR('',#539,10.);
#126=VECTOR('',#544,10.);
#127=VECTOR('',#549,10.);
#128=VECTOR('',#554,10.);
#129=VECTOR('',#559,10.);
#130=VECTOR('',#560,10.);
#131=VECTOR('',#563,10.);
#132=VECTOR('',#566,10.);
#133=VECTOR('',#569,10.);
#134=VECTOR('',#578,1.65);
#135=VECTOR('',#593,25.);
#136=VECTOR('',#614,20.);
#137=CIRCLE('',#416,1.65);
#138=CIRCLE('',#417,1.65);
#139=CIRCLE('',#419,25.);
#140=CIRCLE('',#420,2.);
#141=CIRCLE('',#421,23.);
#142=CIRCLE('',#423,25.);
#143=CIRCLE('',#425,22.);
#144=CIRCLE('',#427,23.);
#145=CIRCLE('',#428,2.);
#146=CIRCLE('',#431,2.);
#147=CIRCLE('',#432,20.);
#148=CIRCLE('',#434,20.);
#149=CIRCLE('',#436,18.);
#150=CIRCLE('',#437,2.);
#151=CIRCLE('',#440,2.);
#152=CIRCLE('',#441,2.);
#153=CIRCLE('',#443,2.);
#154=CIRCLE('',#444,2.);
#155=CIRCLE('',#445,2.);
#156=CIRCLE('',#447,2.);
#157=CIRCLE('',#449,2.);
#158=CIRCLE('',#451,2.);
#159=CIRCLE('',#456,1.65);
#160=CIRCLE('',#457,1.65);
#161=CIRCLE('',#459,25.);
#162=CIRCLE('',#460,2.);
#163=CIRCLE('',#461,23.);
#164=CIRCLE('',#463,25.);
#165=CIRCLE('',#465,22.);
#166=CIRCLE('',#467,23.);
#167=CIRCLE('',#468,2.);
#168=CIRCLE('',#471,2.);
#169=CIRCLE('',#472,20.);
#170=CIRCLE('',#474,20.);
#171=CIRCLE('',#476,18.);
#172=CIRCLE('',#477,2.);
#173=VERTEX_POINT('',#627);
#174=VERTEX_POINT('',#629);
#175=VERTEX_POINT('',#633);
#176=VERTEX_POINT('',#635);
#177=VERTEX_POINT('',#639);
#178=VERTEX_POINT('',#643);
#179=VERTEX_POINT('',#646);
#180=VERTEX_POINT('',#651);
#181=VERTEX_POINT('',#655);
#182=VERTEX_POINT('',#659);
#183=VERTEX_POINT('',#664);
#184=VERTEX_POINT('',#665);
#185=VERTEX_POINT('',#667);
#186=VERTEX_POINT('',#669);
#187=VERTEX_POINT('',#673);
#188=VERTEX_POINT('',#675);
#189=VERTEX_POINT('',#677);
#190=VERTEX_POINT('',#679);
#191=VERTEX_POINT('',#683);
#192=VERTEX_POINT('',#687);
#193=VERTEX_POINT('',#688);
#194=VERTEX_POINT('',#694);
#195=VERTEX_POINT('',#702);
#196=VERTEX_POINT('',#704);
#197=VERTEX_POINT('',#708);
#198=VERTEX_POINT('',#710);
#199=VERTEX_POINT('',#714);
#200=VERTEX_POINT('',#718);
#201=VERTEX_POINT('',#721);
#202=VERTEX_POINT('',#726);
#203=VERTEX_POINT('',#730);
#204=VERTEX_POINT('',#734);
#205=EDGE_CURVE('',#173,#173,#137,.T.);
#206=EDGE_CURVE('',#173,#174,#105,.T.);
#207=EDGE_CURVE('',#174,#174,#138,.T.);
#208=EDGE_CURVE('',#175,#175,#139,.T.);
#209=EDGE_CURVE('',#175,#176,#140,.T.);
#210=EDGE_CURVE('',#176,#176,#141,.T.);
#211=EDGE_CURVE('',#177,#177,#142,.T.);
#212=EDGE_CURVE('',#177,#175,#106,.T.);
#213=EDGE_CURVE('',#178,#178,#143,.T.);
#214=EDGE_CURVE('',#179,#179,#144,.T.);
#215=EDGE_CURVE('',#179,#177,#145,.T.);
#216=EDGE_CURVE('',#178,#180,#146,.T.);
#217=EDGE_CURVE('',#180,#180,#147,.T.);
#218=EDGE_CURVE('',#180,#181,#107,.T.);
#219=EDGE_CURVE('',#181,#181,#148,.T.);
#220=EDGE_CURVE('',#182,#182,#149,.T.);
#221=EDGE_CURVE('',#182,#181,#150,.T.);
#222=EDGE_CURVE('',#183,#184,#151,.T.);
#223=EDGE_CURVE('',#185,#184,#108,.T.);
#224=EDGE_CURVE('',#185,#186,#152,.T.);
#225=EDGE_CURVE('',#186,#183,#109,.T.);
#226=EDGE_CURVE('',#187,#185,#153,.T.);
#227=EDGE_CURVE('',#188,#187,#110,.T.);
#228=EDGE_CURVE('',#189,#188,#154,.T.);
#229=EDGE_CURVE('',#190,#189,#155,.T.);
#230=EDGE_CURVE('',#186,#190,#111,.T.);
#231=EDGE_CURVE('',#184,#191,#156,.T.);
#232=EDGE_CURVE('',#191,#187,#112,.T.);
#233=EDGE_CURVE('',#192,#193,#157,.T.);
#234=EDGE_CURVE('',#193,#190,#113,.T.);
#235=EDGE_CURVE('',#192,#189,#114,.T.);
#236=EDGE_CURVE('',#183,#193,#115,.T.);
#237=EDGE_CURVE('',#194,#192,#158,.T.);
#238=EDGE_CURVE('',#194,#191,#116,.T.);
#239=EDGE_CURVE('',#188,#194,#117,.T.);
#240=EDGE_CURVE('',#195,#195,#159,.T.);
#241=EDGE_CURVE('',#195,#196,#118,.T.);
#242=EDGE_CURVE('',#196,#196,#160,.T.);
#243=EDGE_CURVE('',#197,#197,#161,.T.);
#244=EDGE_CURVE('',#197,#198,#162,.T.);
#245=EDGE_CURVE('',#198,#198,#163,.T.);
#246=EDGE_CURVE('',#199,#199,#164,.T.);
#247=EDGE_CURVE('',#199,#197,#119,.T.);
#248=EDGE_CURVE('',#200,#200,#165,.T.);
#249=EDGE_CURVE('',#201,#201,#166,.T.);
#250=EDGE_CURVE('',#201,#199,#167,.T.);
#251=EDGE_CURVE('',#200,#202,#168,.T.);
#252=EDGE_CURVE('',#202,#202,#169,.T.);
#253=EDGE_CURVE('',#202,#203,#120,.T.);
#254=EDGE_CURVE('',#203,#203,#170,.T.);
#255=EDGE_CURVE('',#204,#204,#171,.T.);
#256=EDGE_CURVE('',#204,#203,#172,.T.);
#257=ORIENTED_EDGE('',*,*,#205,.F.);
#258=ORIENTED_EDGE('',*,*,#206,.T.);
#259=ORIENTED_EDGE('',*,*,#207,.F.);
#260=ORIENTED_EDGE('',*,*,#206,.F.);
#261=ORIENTED_EDGE('',*,*,#208,.T.);
#262=ORIENTED_EDGE('',*,*,#209,.T.);
#263=ORIENTED_EDGE('',*,*,#210,.T.);
#264=ORIENTED_EDGE('',*,*,#209,.F.);
#265=ORIENTED_EDGE('',*,*,#211,.F.);
#266=ORIENTED_EDGE('',*,*,#212,.T.);
#267=ORIENTED_EDGE('',*,*,#208,.F.);
#268=ORIENTED_EDGE('',*,*,#212,.F.);
#269=ORIENTED_EDGE('',*,*,#210,.F.);
#270=ORIENTED_EDGE('',*,*,#213,.F.);
#271=ORIENTED_EDGE('',*,*,#214,.T.);
#272=ORIENTED_EDGE('',*,*,#215,.T.);
#273=ORIENTED_EDGE('',*,*,#211,.T.);
#274=ORIENTED_EDGE('',*,*,#215,.F.);
#275=ORIENTED_EDGE('',*,*,#214,.F.);
#276=ORIENTED_EDGE('',*,*,#205,.T.);
#277=ORIENTED_EDGE('',*,*,#213,.T.);
#278=ORIENTED_EDGE('',*,*,#216,.T.);
#279=ORIENTED_EDGE('',*,*,#217,.T.);
#280=ORIENTED_EDGE('',*,*,#216,.F.);
#281=ORIENTED_EDGE('',*,*,#217,.F.);
#282=ORIENTED_EDGE('',*,*,#218,.T.);
#283=ORIENTED_EDGE('',*,*,#219,.F.);
#284=ORIENTED_EDGE('',*,*,#218,.F.);
#285=ORIENTED_EDGE('',*,*,#220,.T.);
#286=ORIENTED_EDGE('',*,*,#221,.T.);
#287=ORIENTED_EDGE('',*,*,#219,.T.);
#288=ORIENTED_EDGE('',*,*,#221,.F.);
#289=ORIENTED_EDGE('',*,*,#220,.F.);
#290=ORIENTED_EDGE('',*,*,#207,.T.);
#291=ORIENTED_EDGE('',*,*,#222,.T.);
#292=ORIENTED_EDGE('',*,*,#223,.F.);
#293=ORIENTED_EDGE('',*,*,#224,.T.);
#294=ORIENTED_EDGE('',*,*,#225,.T.);
#295=ORIENTED_EDGE('',*,*,#224,.F.);
#296=ORIENTED_EDGE('',*,*,#226,.F.);
#297=ORIENTED_EDGE('',*,*,#227,.F.);
#298=ORIENTED_EDGE('',*,*,#228,.F.);
#299=ORIENTED_EDGE('',*,*,#229,.F.);
#300=ORIENTED_EDGE('',*,*,#230,.F.);
#301=ORIENTED_EDGE('',*,*,#231,.T.);
#302=ORIENTED_EDGE('',*,*,#232,.T.);
#303=ORIENTED_EDGE('',*,*,#226,.T.);
#304=ORIENTED_EDGE('',*,*,#223,.T.);
#305=ORIENTED_EDGE('',*,*,#233,.T.);
#306=ORIENTED_EDGE('',*,*,#234,.T.);
#307=ORIENTED_EDGE('',*,*,#229,.T.);
#308=ORIENTED_EDGE('',*,*,#235,.F.);
#309=ORIENTED_EDGE('',*,*,#222,.F.);
#310=ORIENTED_EDGE('',*,*,#236,.T.);
#311=ORIENTED_EDGE('',*,*,#233,.F.);
#312=ORIENTED_EDGE('',*,*,#237,.F.);
#313=ORIENTED_EDGE('',*,*,#238,.T.);
#314=ORIENTED_EDGE('',*,*,#231,.F.);
#315=ORIENTED_EDGE('',*,*,#237,.T.);
#316=ORIENTED_EDGE('',*,*,#235,.T.);
#317=ORIENTED_EDGE('',*,*,#228,.T.);
#318=ORIENTED_EDGE('',*,*,#239,.T.);
#319=ORIENTED_EDGE('',*,*,#225,.F.);
#320=ORIENTED_EDGE('',*,*,#230,.T.);
#321=ORIENTED_EDGE('',*,*,#234,.F.);
#322=ORIENTED_EDGE('',*,*,#236,.F.);
#323=ORIENTED_EDGE('',*,*,#232,.F.);
#324=ORIENTED_EDGE('',*,*,#238,.F.);
#325=ORIENTED_EDGE('',*,*,#239,.F.);
#326=ORIENTED_EDGE('',*,*,#227,.T.);
#327=ORIENTED_EDGE('',*,*,#240,.F.);
#328=ORIENTED_EDGE('',*,*,#241,.T.);
#329=ORIENTED_EDGE('',*,*,#242,.F.);
#330=ORIENTED_EDGE('',*,*,#241,.F.);
#331=ORIENTED_EDGE('',*,*,#243,.T.);
#332=ORIENTED_EDGE('',*,*,#244,.T.);
#333=ORIENTED_EDGE('',*,*,#245,.T.);
#334=ORIENTED_EDGE('',*,*,#244,.F.);
#335=ORIENTED_EDGE('',*,*,#246,.F.);
#336=ORIENTED_EDGE('',*,*,#247,.T.);
#337=ORIENTED_EDGE('',*,*,#243,.F.);
#338=ORIENTED_EDGE('',*,*,#247,.F.);
#339=ORIENTED_EDGE('',*,*,#245,.F.);
#340=ORIENTED_EDGE('',*,*,#248,.F.);
#341=ORIENTED_EDGE('',*,*,#249,.T.);
#342=ORIENTED_EDGE('',*,*,#250,.T.);
#343=ORIENTED_EDGE('',*,*,#246,.T.);
#344=ORIENTED_EDGE('',*,*,#250,.F.);
#345=ORIENTED_EDGE('',*,*,#249,.F.);
#346=ORIENTED_EDGE('',*,*,#240,.T.);
#347=ORIENTED_EDGE('',*,*,#248,.T.);
#348=ORIENTED_EDGE('',*,*,#251,.T.);
#349=ORIENTED_EDGE('',*,*,#252,.T.);
#350=ORIENTED_EDGE('',*,*,#251,.F.);
#351=ORIENTED_EDGE('',*,*,#252,.F.);
#352=ORIENTED_EDGE('',*,*,#253,.T.);
#353=ORIENTED_EDGE('',*,*,#254,.F.);
#354=ORIENTED_EDGE('',*,*,#253,.F.);
#355=ORIENTED_EDGE('',*,*,#255,.T.);
#356=ORIENTED_EDGE('',*,*,#256,.T.);
#357=ORIENTED_EDGE('',*,*,#254,.T.);
#358=ORIENTED_EDGE('',*,*,#256,.F.);
#359=ORIENTED_EDGE('',*,*,#255,.F.);
#360=ORIENTED_EDGE('',*,*,#242,.T.);
#361=CYLINDRICAL_SURFACE('',#415,1.65);
#362=CYLINDRICAL_SURFACE('',#422,25.);
#363=CYLINDRICAL_SURFACE('',#433,20.);
#364=CYLINDRICAL_SURFACE('',#439,2.);
#365=CYLINDRICAL_SURFACE('',#446,2.);
#366=CYLINDRICAL_SURFACE('',#448,2.);
#367=CYLINDRICAL_SURFACE('',#452,2.);
#368=CYLINDRICAL_SURFACE('',#455,1.65);
#369=CYLINDRICAL_SURFACE('',#462,25.);
#370=CYLINDRICAL_SURFACE('',#473,20.);
#371=ADVANCED_FACE('',(#43),#361,.F.);
#372=ADVANCED_FACE('',(#44),#35,.T.);
#373=ADVANCED_FACE('',(#45),#362,.T.);
#374=ADVANCED_FACE('',(#46,#19),#25,.F.);
#375=ADVANCED_FACE('',(#47),#36,.T.);
#376=ADVANCED_FACE('',(#48,#20),#26,.T.);
#377=ADVANCED_FACE('',(#49),#37,.T.);
#378=ADVANCED_FACE('',(#50),#363,.F.);
#379=ADVANCED_FACE('',(#51),#38,.F.);
#380=ADVANCED_FACE('',(#52,#21),#27,.T.);
#381=ADVANCED_FACE('',(#53),#364,.T.);
#382=ADVANCED_FACE('',(#54),#28,.F.);
#383=ADVANCED_FACE('',(#55),#365,.T.);
#384=ADVANCED_FACE('',(#56),#366,.T.);
#385=ADVANCED_FACE('',(#57),#29,.T.);
#386=ADVANCED_FACE('',(#58),#367,.T.);
#387=ADVANCED_FACE('',(#59),#30,.T.);
#388=ADVANCED_FACE('',(#60),#31,.T.);
#389=ADVANCED_FACE('',(#61),#368,.F.);
#390=ADVANCED_FACE('',(#62),#39,.T.);
#391=ADVANCED_FACE('',(#63),#369,.T.);
#392=ADVANCED_FACE('',(#64,#22),#32,.F.);
#393=ADVANCED_FACE('',(#65),#40,.T.);
#394=ADVANCED_FACE('',(#66,#23),#33,.T.);
#395=ADVANCED_FACE('',(#67),#41,.T.);
#396=ADVANCED_FACE('',(#68),#370,.F.);
#397=ADVANCED_FACE('',(#69),#42,.F.);
#398=ADVANCED_FACE('',(#70,#24),#34,.T.);
#399=CLOSED_SHELL('',(#371,#372,#373,#374,#375,#376,#377,#378,#379,#380));
#400=CLOSED_SHELL('',(#381,#382,#383,#384,#385,#386,#387,#388));
#401=CLOSED_SHELL('',(#389,#390,#391,#392,#393,#394,#395,#396,#397,#398));
#402=DERIVED_UNIT_ELEMENT(#404,1.);
#403=DERIVED_UNIT_ELEMENT(#743,-3.);
#404=(
MASS_UNIT()
NAMED_UNIT(*)
SI_UNIT(.KILO.,.GRAM.)
);
#405=DERIVED_UNIT((#402,#403));
#406=MEASURE_REPRESENTATION_ITEM('density measure',
POSITIVE_RATIO_MEASURE(7850.),#405);
#407=PROPERTY_DEFINITION_REPRESENTATION(#412,#409);
#408=PROPERTY_DEFINITION_REPRESENTATION(#413,#410);
#409=REPRESENTATION('material name',(#411),#740);
#410=REPRESENTATION('density',(#406),#740);
#411=DESCRIPTIVE_REPRESENTATION_ITEM('Steel','Steel');
#412=PROPERTY_DEFINITION('material property','material name',#750);
#413=PROPERTY_DEFINITION('material property','density of part',#750);
#414=AXIS2_PLACEMENT_3D('',#625,#479,#480);
#415=AXIS2_PLACEMENT_3D('',#626,#481,#482);
#416=AXIS2_PLACEMENT_3D('',#628,#483,#484);
#417=AXIS2_PLACEMENT_3D('',#631,#486,#487);
#418=AXIS2_PLACEMENT_3D('',#632,#488,#489);
#419=AXIS2_PLACEMENT_3D('',#634,#490,#491);
#420=AXIS2_PLACEMENT_3D('',#636,#492,#493);
#421=AXIS2_PLACEMENT_3D('',#637,#494,#495);
#422=AXIS2_PLACEMENT_3D('',#638,#496,#497);
#423=AXIS2_PLACEMENT_3D('',#640,#498,#499);
#424=AXIS2_PLACEMENT_3D('',#642,#501,#502);
#425=AXIS2_PLACEMENT_3D('',#644,#503,#504);
#426=AXIS2_PLACEMENT_3D('',#645,#505,#506);
#427=AXIS2_PLACEMENT_3D('',#647,#507,#508);
#428=AXIS2_PLACEMENT_3D('',#648,#509,#510);
#429=AXIS2_PLACEMENT_3D('',#649,#511,#512);
#430=AXIS2_PLACEMENT_3D('',#650,#513,#514);
#431=AXIS2_PLACEMENT_3D('',#652,#515,#516);
#432=AXIS2_PLACEMENT_3D('',#653,#517,#518);
#433=AXIS2_PLACEMENT_3D('',#654,#519,#520);
#434=AXIS2_PLACEMENT_3D('',#657,#522,#523);
#435=AXIS2_PLACEMENT_3D('',#658,#524,#525);
#436=AXIS2_PLACEMENT_3D('',#660,#526,#527);
#437=AXIS2_PLACEMENT_3D('',#661,#528,#529);
#438=AXIS2_PLACEMENT_3D('',#662,#530,#531);
#439=AXIS2_PLACEMENT_3D('',#663,#532,#533);
#440=AXIS2_PLACEMENT_3D('',#666,#534,#535);
#441=AXIS2_PLACEMENT_3D('',#670,#537,#538);
#442=AXIS2_PLACEMENT_3D('',#672,#540,#541);
#443=AXIS2_PLACEMENT_3D('',#674,#542,#543);
#444=AXIS2_PLACEMENT_3D('',#678,#545,#546);
#445=AXIS2_PLACEMENT_3D('',#680,#547,#548);
#446=AXIS2_PLACEMENT_3D('',#682,#550,#551);
#447=AXIS2_PLACEMENT_3D('',#684,#552,#553);
#448=AXIS2_PLACEMENT_3D('',#686,#555,#556);
#449=AXIS2_PLACEMENT_3D('',#689,#557,#558);
#450=AXIS2_PLACEMENT_3D('',#692,#561,#562);
#451=AXIS2_PLACEMENT_3D('',#695,#564,#565);
#452=AXIS2_PLACEMENT_3D('',#697,#567,#568);
#453=AXIS2_PLACEMENT_3D('',#699,#570,#571);
#454=AXIS2_PLACEMENT_3D('',#700,#572,#573);
#455=AXIS2_PLACEMENT_3D('',#701,#574,#575);
#456=AXIS2_PLACEMENT_3D('',#703,#576,#577);
#457=AXIS2_PLACEMENT_3D('',#706,#579,#580);
#458=AXIS2_PLACEMENT_3D('',#707,#581,#582);
#459=AXIS2_PLACEMENT_3D('',#709,#583,#584);
#460=AXIS2_PLACEMENT_3D('',#711,#585,#586);
#461=AXIS2_PLACEMENT_3D('',#712,#587,#588);
#462=AXIS2_PLACEMENT_3D('',#713,#589,#590);
#463=AXIS2_PLACEMENT_3D('',#715,#591,#592);
#464=AXIS2_PLACEMENT_3D('',#717,#594,#595);
#465=AXIS2_PLACEMENT_3D('',#719,#596,#597);
#466=AXIS2_PLACEMENT_3D('',#720,#598,#599);
#467=AXIS2_PLACEMENT_3D('',#722,#600,#601);
#468=AXIS2_PLACEMENT_3D('',#723,#602,#603);
#469=AXIS2_PLACEMENT_3D('',#724,#604,#605);
#470=AXIS2_PLACEMENT_3D('',#725,#606,#607);
#471=AXIS2_PLACEMENT_3D('',#727,#608,#609);
#472=AXIS2_PLACEMENT_3D('',#728,#610,#611);
#473=AXIS2_PLACEMENT_3D('',#729,#612,#613);
#474=AXIS2_PLACEMENT_3D('',#732,#615,#616);
#475=AXIS2_PLACEMENT_3D('',#733,#617,#618);
#476=AXIS2_PLACEMENT_3D('',#735,#619,#620);
#477=AXIS2_PLACEMENT_3D('',#736,#621,#622);
#478=AXIS2_PLACEMENT_3D('',#737,#623,#624);
#479=DIRECTION('axis',(0.,0.,1.));
#480=DIRECTION('refdir',(1.,0.,0.));
#481=DIRECTION('center_axis',(0.,0.,-1.));
#482=DIRECTION('ref_axis',(-1.,0.,0.));
#483=DIRECTION('center_axis',(0.,0.,-1.));
#484=DIRECTION('ref_axis',(-1.,0.,0.));
#485=DIRECTION('',(0.,0.,-1.));
#486=DIRECTION('center_axis',(0.,0.,1.));
#487=DIRECTION('ref_axis',(-1.,0.,0.));
#488=DIRECTION('center_axis',(0.,0.,1.));
#489=DIRECTION('ref_axis',(1.,0.,0.));
#490=DIRECTION('center_axis',(0.,0.,-1.));
#491=DIRECTION('ref_axis',(1.,0.,0.));
#492=DIRECTION('center_axis',(1.22464679914735E-16,-1.,0.));
#493=DIRECTION('ref_axis',(-1.,-1.22464679914735E-16,0.));
#494=DIRECTION('center_axis',(0.,0.,1.));
#495=DIRECTION('ref_axis',(1.,0.,0.));
#496=DIRECTION('center_axis',(0.,0.,1.));
#497=DIRECTION('ref_axis',(1.,0.,0.));
#498=DIRECTION('center_axis',(0.,0.,1.));
#499=DIRECTION('ref_axis',(1.,0.,0.));
#500=DIRECTION('',(0.,0.,-1.));
#501=DIRECTION('center_axis',(0.,0.,1.));
#502=DIRECTION('ref_axis',(1.,0.,0.));
#503=DIRECTION('center_axis',(0.,0.,-1.));
#504=DIRECTION('ref_axis',(1.,0.,0.));
#505=DIRECTION('center_axis',(0.,0.,1.));
#506=DIRECTION('ref_axis',(1.,0.,0.));
#507=DIRECTION('center_axis',(0.,0.,-1.));
#508=DIRECTION('ref_axis',(1.,0.,0.));
#509=DIRECTION('center_axis',(1.22464679914735E-16,-1.,0.));
#510=DIRECTION('ref_axis',(-1.,-1.22464679914735E-16,0.));
#511=DIRECTION('center_axis',(0.,0.,1.));
#512=DIRECTION('ref_axis',(1.,0.,0.));
#513=DIRECTION('center_axis',(0.,0.,1.));
#514=DIRECTION('ref_axis',(1.,0.,0.));
#515=DIRECTION('center_axis',(1.22464679914735E-16,-1.,0.));
#516=DIRECTION('ref_axis',(-1.,-1.22464679914735E-16,0.));
#517=DIRECTION('center_axis',(0.,0.,1.));
#518=DIRECTION('ref_axis',(1.,0.,0.));
#519=DIRECTION('center_axis',(0.,0.,1.));
#520=DIRECTION('ref_axis',(1.,0.,0.));
#521=DIRECTION('',(0.,0.,1.));
#522=DIRECTION('center_axis',(0.,0.,-1.));
#523=DIRECTION('ref_axis',(1.,0.,0.));
#524=DIRECTION('center_axis',(0.,0.,1.));
#525=DIRECTION('ref_axis',(1.,0.,0.));
#526=DIRECTION('center_axis',(0.,0.,1.));
#527=DIRECTION('ref_axis',(1.,0.,0.));
#528=DIRECTION('center_axis',(1.22464679914735E-16,-1.,0.));
#529=DIRECTION('ref_axis',(-1.,-1.22464679914735E-16,0.));
#530=DIRECTION('center_axis',(0.,0.,-1.));
#531=DIRECTION('ref_axis',(1.,0.,0.));
#532=DIRECTION('center_axis',(1.,0.,0.));
#533=DIRECTION('ref_axis',(0.,-0.707106781186547,-0.707106781186548));
#534=DIRECTION('center_axis',(-1.,0.,0.));
#535=DIRECTION('ref_axis',(0.,-0.707106781186547,-0.707106781186548));
#536=DIRECTION('',(1.,0.,0.));
#537=DIRECTION('center_axis',(1.,0.,0.));
#538=DIRECTION('ref_axis',(0.,-0.707106781186547,-0.707106781186548));
#539=DIRECTION('',(1.,0.,0.));
#540=DIRECTION('center_axis',(1.,0.,0.));
#541=DIRECTION('ref_axis',(0.,1.,0.));
#542=DIRECTION('center_axis',(1.,0.,0.));
#543=DIRECTION('ref_axis',(0.,-0.707106781186548,0.707106781186548));
#544=DIRECTION('',(0.,-1.,0.));
#545=DIRECTION('center_axis',(1.,0.,0.));
#546=DIRECTION('ref_axis',(0.,0.707106781186547,0.707106781186548));
#547=DIRECTION('center_axis',(1.,0.,0.));
#548=DIRECTION('ref_axis',(0.,0.707106781186548,-0.707106781186548));
#549=DIRECTION('',(0.,1.,0.));
#550=DIRECTION('center_axis',(1.,0.,0.));
#551=DIRECTION('ref_axis',(0.,-0.707106781186548,0.707106781186548));
#552=DIRECTION('center_axis',(-1.,0.,0.));
#553=DIRECTION('ref_axis',(0.,-0.707106781186548,0.707106781186548));
#554=DIRECTION('',(-1.,0.,0.));
#555=DIRECTION('center_axis',(1.,0.,0.));
#556=DIRECTION('ref_axis',(0.,0.707106781186548,-0.707106781186548));
#557=DIRECTION('center_axis',(-1.,0.,0.));
#558=DIRECTION('ref_axis',(0.,0.707106781186548,-0.707106781186548));
#559=DIRECTION('',(-1.,0.,0.));
#560=DIRECTION('',(-1.,0.,0.));
#561=DIRECTION('center_axis',(1.,0.,0.));
#562=DIRECTION('ref_axis',(0.,0.,-1.));
#563=DIRECTION('',(0.,1.,0.));
#564=DIRECTION('center_axis',(-1.,0.,0.));
#565=DIRECTION('ref_axis',(0.,0.707106781186547,0.707106781186548));
#566=DIRECTION('',(0.,-1.,0.));
#567=DIRECTION('center_axis',(1.,0.,0.));
#568=DIRECTION('ref_axis',(0.,0.707106781186547,0.707106781186548));
#569=DIRECTION('',(1.,0.,0.));
#570=DIRECTION('center_axis',(0.,0.,-1.));
#571=DIRECTION('ref_axis',(0.,1.,0.));
#572=DIRECTION('center_axis',(0.,0.,1.));
#573=DIRECTION('ref_axis',(0.,-1.,0.));
#574=DIRECTION('center_axis',(0.,1.,2.22044604925031E-16));
#575=DIRECTION('ref_axis',(-1.,0.,0.));
#576=DIRECTION('center_axis',(0.,1.,2.22044604925031E-16));
#577=DIRECTION('ref_axis',(-1.,0.,0.));
#578=DIRECTION('',(0.,1.,2.22044604925031E-16));
#579=DIRECTION('center_axis',(0.,-1.,-2.22044604925031E-16));
#580=DIRECTION('ref_axis',(-1.,0.,0.));
#581=DIRECTION('center_axis',(0.,-1.,-2.22044604925031E-16));
#582=DIRECTION('ref_axis',(1.,0.,0.));
#583=DIRECTION('center_axis',(0.,1.,2.22044604925031E-16));
#584=DIRECTION('ref_axis',(1.,0.,0.));
#585=DIRECTION('center_axis',(1.33226762955019E-16,2.22044604925031E-16,
-1.));
#586=DIRECTION('ref_axis',(-1.,0.,-1.33226762955019E-16));
#587=DIRECTION('center_axis',(0.,-1.,-2.22044604925031E-16));
#588=DIRECTION('ref_axis',(1.,0.,0.));
#589=DIRECTION('center_axis',(0.,-1.,-2.22044604925031E-16));
#590=DIRECTION('ref_axis',(1.,0.,0.));
#591=DIRECTION('center_axis',(0.,-1.,-2.22044604925031E-16));
#592=DIRECTION('ref_axis',(1.,0.,0.));
#593=DIRECTION('',(0.,1.,2.22044604925031E-16));
#594=DIRECTION('center_axis',(0.,-1.,-2.22044604925031E-16));
#595=DIRECTION('ref_axis',(1.,0.,0.));
#596=DIRECTION('center_axis',(0.,1.,2.22044604925031E-16));
#597=DIRECTION('ref_axis',(1.,0.,0.));
#598=DIRECTION('center_axis',(0.,-1.,-2.22044604925031E-16));
#599=DIRECTION('ref_axis',(1.,0.,0.));
#600=DIRECTION('center_axis',(0.,1.,2.22044604925031E-16));
#601=DIRECTION('ref_axis',(1.,0.,0.));
#602=DIRECTION('center_axis',(1.33226762955019E-16,2.22044604925031E-16,
-1.));
#603=DIRECTION('ref_axis',(-1.,0.,-1.33226762955019E-16));
#604=DIRECTION('center_axis',(0.,-1.,-2.22044604925031E-16));
#605=DIRECTION('ref_axis',(1.,0.,0.));
#606=DIRECTION('center_axis',(0.,-1.,-2.22044604925031E-16));
#607=DIRECTION('ref_axis',(1.,0.,0.));
#608=DIRECTION('center_axis',(1.38777878078145E-16,2.22044604925031E-16,
-1.));
#609=DIRECTION('ref_axis',(-1.,0.,-1.38777878078145E-16));
#610=DIRECTION('center_axis',(0.,-1.,-2.22044604925031E-16));
#611=DIRECTION('ref_axis',(1.,0.,0.));
#612=DIRECTION('center_axis',(0.,-1.,-2.22044604925031E-16));
#613=DIRECTION('ref_axis',(1.,0.,0.));
#614=DIRECTION('',(0.,-1.,-2.22044604925031E-16));
#615=DIRECTION('center_axis',(0.,1.,2.22044604925031E-16));
#616=DIRECTION('ref_axis',(1.,0.,0.));
#617=DIRECTION('center_axis',(0.,-1.,-2.22044604925031E-16));
#618=DIRECTION('ref_axis',(1.,0.,0.));
#619=DIRECTION('center_axis',(0.,-1.,-2.22044604925031E-16));
#620=DIRECTION('ref_axis',(1.,0.,0.));
#621=DIRECTION('center_axis',(1.11022302462516E-16,2.22044604925031E-16,
-1.));
#622=DIRECTION('ref_axis',(-1.,0.,-1.11022302462516E-16));
#623=DIRECTION('center_axis',(0.,1.,2.22044604925031E-16));
#624=DIRECTION('ref_axis',(1.,0.,0.));
#625=CARTESIAN_POINT('',(0.,0.,0.));
#626=CARTESIAN_POINT('Origin',(0.,0.,8.));
#627=CARTESIAN_POINT('',(1.65,2.02066721859313E-16,8.));
#628=CARTESIAN_POINT('Origin',(0.,0.,8.));
#629=CARTESIAN_POINT('',(1.65,2.02066721859313E-16,5.));
#630=CARTESIAN_POINT('',(1.65,-2.02066721859313E-16,8.));
#631=CARTESIAN_POINT('Origin',(0.,0.,5.));
#632=CARTESIAN_POINT('Origin',(0.,0.,2.));
#633=CARTESIAN_POINT('',(-25.,3.06161699786838E-15,2.));
#634=CARTESIAN_POINT('Origin',(0.,0.,2.));
#635=CARTESIAN_POINT('',(-23.,-2.81668763803891E-15,0.));
#636=CARTESIAN_POINT('Origin',(-23.,-2.81668763803891E-15,2.));
#637=CARTESIAN_POINT('Origin',(0.,0.,0.));
#638=CARTESIAN_POINT('Origin',(0.,0.,0.));
#639=CARTESIAN_POINT('',(-25.,-3.06161699786838E-15,6.));
#640=CARTESIAN_POINT('Origin',(0.,0.,6.));
#641=CARTESIAN_POINT('',(-25.,-3.06161699786838E-15,0.));
#642=CARTESIAN_POINT('Origin',(0.,0.,0.));
#643=CARTESIAN_POINT('',(-22.,2.69422295812418E-15,0.));
#644=CARTESIAN_POINT('Origin',(0.,0.,0.));
#645=CARTESIAN_POINT('Origin',(0.,0.,6.));
#646=CARTESIAN_POINT('',(-23.,2.81668763803891E-15,8.));
#647=CARTESIAN_POINT('Origin',(0.,0.,8.));
#648=CARTESIAN_POINT('Origin',(-23.,-2.81668763803891E-15,6.));
#649=CARTESIAN_POINT('Origin',(0.,0.,8.));
#650=CARTESIAN_POINT('Origin',(0.,0.,2.));
#651=CARTESIAN_POINT('',(-20.,-2.44929359829471E-15,2.));
#652=CARTESIAN_POINT('Origin',(-22.,-2.69422295812418E-15,2.));
#653=CARTESIAN_POINT('Origin',(0.,0.,2.));
#654=CARTESIAN_POINT('Origin',(0.,0.,0.));
#655=CARTESIAN_POINT('',(-20.,2.44929359829471E-15,3.));
#656=CARTESIAN_POINT('',(-20.,-2.44929359829471E-15,0.));
#657=CARTESIAN_POINT('Origin',(0.,0.,3.));
#658=CARTESIAN_POINT('Origin',(0.,0.,3.));
#659=CARTESIAN_POINT('',(-18.,-2.20436423846524E-15,5.));
#660=CARTESIAN_POINT('Origin',(0.,0.,5.));
#661=CARTESIAN_POINT('Origin',(-18.,-2.20436423846524E-15,3.));
#662=CARTESIAN_POINT('Origin',(0.,0.,5.));
#663=CARTESIAN_POINT('Origin',(22.,-3.00000007450581,4.00000002980232));
#664=CARTESIAN_POINT('',(172.,-3.00000007450581,2.00000002980232));
#665=CARTESIAN_POINT('',(172.,-5.00000007450581,4.00000008940697));
#666=CARTESIAN_POINT('Origin',(172.,-3.00000007450581,4.00000002980232));
#667=CARTESIAN_POINT('',(22.,-5.00000007450581,4.00000008940697));
#668=CARTESIAN_POINT('',(22.,-5.00000007450581,4.00000008940697));
#669=CARTESIAN_POINT('',(22.,-3.00000007450581,2.00000002980232));
#670=CARTESIAN_POINT('Origin',(22.,-3.00000007450581,4.00000002980232));
#671=CARTESIAN_POINT('',(22.,-3.00000007450581,2.00000002980232));
#672=CARTESIAN_POINT('Origin',(22.,-4.59242549680257E-15,4.00000005960464));
#673=CARTESIAN_POINT('',(22.,-3.00000007450581,6.00000008940697));
#674=CARTESIAN_POINT('Origin',(22.,-3.00000007450581,4.00000008940697));
#675=CARTESIAN_POINT('',(22.,3.0000000745058,6.00000008940697));
#676=CARTESIAN_POINT('',(22.,5.0000000745058,6.00000008940697));
#677=CARTESIAN_POINT('',(22.,5.0000000745058,4.00000008940697));
#678=CARTESIAN_POINT('Origin',(22.,3.0000000745058,4.00000008940697));
#679=CARTESIAN_POINT('',(22.,3.0000000745058,2.00000002980232));
#680=CARTESIAN_POINT('Origin',(22.,3.0000000745058,4.00000002980232));
#681=CARTESIAN_POINT('',(22.,-5.00000007450581,2.00000002980232));
#682=CARTESIAN_POINT('Origin',(22.,-3.00000007450581,4.00000008940697));
#683=CARTESIAN_POINT('',(172.,-3.00000007450581,6.00000008940697));
#684=CARTESIAN_POINT('Origin',(172.,-3.00000007450581,4.00000008940697));
#685=CARTESIAN_POINT('',(22.,-3.00000007450581,6.00000008940697));
#686=CARTESIAN_POINT('Origin',(22.,3.0000000745058,4.00000002980232));
#687=CARTESIAN_POINT('',(172.,5.0000000745058,4.00000008940697));
#688=CARTESIAN_POINT('',(172.,3.0000000745058,2.00000002980232));
#689=CARTESIAN_POINT('Origin',(172.,3.0000000745058,4.00000002980232));
#690=CARTESIAN_POINT('',(22.,3.0000000745058,2.00000002980232));
#691=CARTESIAN_POINT('',(22.,5.0000000745058,4.00000008940697));
#692=CARTESIAN_POINT('Origin',(172.,-4.44089209850063E-15,4.00000005960464));
#693=CARTESIAN_POINT('',(172.,-5.00000007450581,2.00000002980232));
#694=CARTESIAN_POINT('',(172.,3.0000000745058,6.00000008940697));
#695=CARTESIAN_POINT('Origin',(172.,3.0000000745058,4.00000008940697));
#696=CARTESIAN_POINT('',(172.,5.0000000745058,6.00000008940697));
#697=CARTESIAN_POINT('Origin',(22.,3.0000000745058,4.00000008940697));
#698=CARTESIAN_POINT('',(22.,3.0000000745058,6.00000008940697));
#699=CARTESIAN_POINT('Origin',(22.,-5.00000007450581,2.00000002980232));
#700=CARTESIAN_POINT('Origin',(22.,5.0000000745058,6.00000008940697));
#701=CARTESIAN_POINT('Origin',(190.,-8.00000000000001,5.00000000000001));
#702=CARTESIAN_POINT('',(191.65,-8.00000000000001,5.00000000000001));
#703=CARTESIAN_POINT('Origin',(190.,-8.00000000000001,5.00000000000001));
#704=CARTESIAN_POINT('',(191.65,-5.00000000000001,5.00000000000001));
#705=CARTESIAN_POINT('',(191.65,-8.00000000000001,5.00000000000001));
#706=CARTESIAN_POINT('Origin',(190.,-5.00000000000001,5.00000000000001));
#707=CARTESIAN_POINT('Origin',(190.,-2.00000000000001,5.00000000000001));
#708=CARTESIAN_POINT('',(165.,-2.00000000000001,5.00000000000001));
#709=CARTESIAN_POINT('Origin',(190.,-2.00000000000001,5.00000000000001));
#710=CARTESIAN_POINT('',(167.,-1.0547118733939E-14,5.));
#711=CARTESIAN_POINT('Origin',(167.,-2.00000000000001,5.));
#712=CARTESIAN_POINT('Origin',(190.,-1.0547118733939E-14,5.00000000000001));
#713=CARTESIAN_POINT('Origin',(190.,-1.0547118733939E-14,5.00000000000001));
#714=CARTESIAN_POINT('',(165.,-6.00000000000001,5.));
#715=CARTESIAN_POINT('Origin',(190.,-6.00000000000001,5.00000000000001));
#716=CARTESIAN_POINT('',(165.,-1.0547118733939E-14,5.));
#717=CARTESIAN_POINT('Origin',(190.,-1.0547118733939E-14,5.00000000000001));
#718=CARTESIAN_POINT('',(168.,-1.0547118733939E-14,5.00000000000001));
#719=CARTESIAN_POINT('Origin',(190.,-1.0547118733939E-14,5.00000000000001));
#720=CARTESIAN_POINT('Origin',(190.,-6.00000000000001,5.00000000000001));
#721=CARTESIAN_POINT('',(167.,-8.00000000000001,5.00000000000001));
#722=CARTESIAN_POINT('Origin',(190.,-8.00000000000001,5.00000000000001));
#723=CARTESIAN_POINT('Origin',(167.,-6.00000000000001,5.));
#724=CARTESIAN_POINT('Origin',(190.,-8.00000000000001,5.00000000000001));
#725=CARTESIAN_POINT('Origin',(190.,-2.00000000000001,5.00000000000001));
#726=CARTESIAN_POINT('',(170.,-2.00000000000001,5.));
#727=CARTESIAN_POINT('Origin',(168.,-2.00000000000001,5.));
#728=CARTESIAN_POINT('Origin',(190.,-2.00000000000001,5.00000000000001));
#729=CARTESIAN_POINT('Origin',(190.,-1.0547118733939E-14,5.00000000000001));
#730=CARTESIAN_POINT('',(170.,-3.00000000000001,5.00000000000001));
#731=CARTESIAN_POINT('',(170.,-1.0547118733939E-14,5.00000000000001));
#732=CARTESIAN_POINT('Origin',(190.,-3.00000000000001,5.00000000000001));
#733=CARTESIAN_POINT('Origin',(190.,-3.00000000000001,5.00000000000001));
#734=CARTESIAN_POINT('',(172.,-5.00000000000001,5.));
#735=CARTESIAN_POINT('Origin',(190.,-5.00000000000001,5.00000000000001));
#736=CARTESIAN_POINT('Origin',(172.,-3.00000000000001,5.00000000000001));
#737=CARTESIAN_POINT('Origin',(190.,-5.00000000000001,5.00000000000001));
#738=UNCERTAINTY_MEASURE_WITH_UNIT(LENGTH_MEASURE(0.01),#742,
'DISTANCE_ACCURACY_VALUE',
'Maximum model space distance between geometric entities at asserted c
onnectivities');
#739=UNCERTAINTY_MEASURE_WITH_UNIT(LENGTH_MEASURE(0.01),#742,
'DISTANCE_ACCURACY_VALUE',
'Maximum model space distance between geometric entities at asserted c
onnectivities');
#740=(
GEOMETRIC_REPRESENTATION_CONTEXT(3)
GLOBAL_UNCERTAINTY_ASSIGNED_CONTEXT((#738))
GLOBAL_UNIT_ASSIGNED_CONTEXT((#742,#744,#745))
REPRESENTATION_CONTEXT('','3D')
);
#741=(
GEOMETRIC_REPRESENTATION_CONTEXT(3)
GLOBAL_UNCERTAINTY_ASSIGNED_CONTEXT((#739))
GLOBAL_UNIT_ASSIGNED_CONTEXT((#742,#744,#745))
REPRESENTATION_CONTEXT('','3D')
);
#742=(
LENGTH_UNIT()
NAMED_UNIT(*)
SI_UNIT(.MILLI.,.METRE.)
);
#743=(
LENGTH_UNIT()
NAMED_UNIT(*)
SI_UNIT($,.METRE.)
);
#744=(
NAMED_UNIT(*)
PLANE_ANGLE_UNIT()
SI_UNIT($,.RADIAN.)
);
#745=(
NAMED_UNIT(*)
SI_UNIT($,.STERADIAN.)
SOLID_ANGLE_UNIT()
);
#746=SHAPE_DEFINITION_REPRESENTATION(#747,#748);
#747=PRODUCT_DEFINITION_SHAPE('',$,#750);
#748=SHAPE_REPRESENTATION('',(#414),#740);
#749=PRODUCT_DEFINITION_CONTEXT('part definition',#754,'design');
#750=PRODUCT_DEFINITION('2026-07-24-17-36-41-566','Horizontal Arm',#751,
#749);
#751=PRODUCT_DEFINITION_FORMATION('',$,#756);
#752=PRODUCT_RELATED_PRODUCT_CATEGORY('Horizontal Arm','Horizontal Arm',
(#756));
#753=APPLICATION_PROTOCOL_DEFINITION('international standard',
'automotive_design',2009,#754);
#754=APPLICATION_CONTEXT(
'Core Data for Automotive Mechanical Design Process');
#755=PRODUCT_CONTEXT('part definition',#754,'mechanical');
#756=PRODUCT('2026-07-24-17-36-41-566','Horizontal Arm',$,(#755));
#757=PRESENTATION_STYLE_ASSIGNMENT((#758));
#758=SURFACE_STYLE_USAGE(.BOTH.,#759);
#759=SURFACE_SIDE_STYLE('',(#760));
#760=SURFACE_STYLE_FILL_AREA(#761);
#761=FILL_AREA_STYLE('Steel - Satin',(#762));
#762=FILL_AREA_STYLE_COLOUR('Steel - Satin',#763);
#763=COLOUR_RGB('Steel - Satin',0.627450980392157,0.627450980392157,0.627450980392157);
ENDSEC;
END-ISO-10303-21;
