ISO-10303-21;
HEADER;
/* Generated by software containing ST-Developer
 * from STEP Tools, Inc. (www.steptools.com) 
 */

FILE_DESCRIPTION(
/* description */ (''),
/* implementation_level */ '2;1');

FILE_NAME(
/* name */ 'Lateral Arm.step',
/* time_stamp */ '2026-07-25T10:07:39-04:00',
/* author */ (''),
/* organization */ (''),
/* preprocessor_version */ 'ST-DEVELOPER v20.1',
/* originating_system */ 'Autodesk Translation Framework v15.8.0.0',
/* authorisation */ '');

FILE_SCHEMA (('AUTOMOTIVE_DESIGN { 1 0 10303 214 3 1 1 }'));
ENDSEC;

DATA;
#10=MECHANICAL_DESIGN_GEOMETRIC_PRESENTATION_REPRESENTATION('',(#13),#923);
#11=SHAPE_REPRESENTATION_RELATIONSHIP('SRR','None',#930,#12);
#12=ADVANCED_BREP_SHAPE_REPRESENTATION('',(#14),#922);
#13=STYLED_ITEM('',(#939),#14);
#14=MANIFOLD_SOLID_BREP('Body1',#515);
#15=FACE_BOUND('',#181,.T.);
#16=FACE_BOUND('',#187,.T.);
#17=PLANE('',#588);
#18=PLANE('',#590);
#19=PLANE('',#591);
#20=PLANE('',#592);
#21=PLANE('',#593);
#22=PLANE('',#594);
#23=PLANE('',#596);
#24=PLANE('',#597);
#25=ELLIPSE('',#572,2.82842712474618,2.);
#26=ELLIPSE('',#577,2.82842712474619,2.);
#27=LINE('',#793,#63);
#28=LINE('',#794,#64);
#29=LINE('',#817,#65);
#30=LINE('',#818,#66);
#31=LINE('',#856,#67);
#32=LINE('',#858,#68);
#33=LINE('',#861,#69);
#34=LINE('',#862,#70);
#35=LINE('',#864,#71);
#36=LINE('',#865,#72);
#37=LINE('',#867,#73);
#38=LINE('',#868,#74);
#39=LINE('',#871,#75);
#40=LINE('',#873,#76);
#41=LINE('',#876,#77);
#42=LINE('',#877,#78);
#43=LINE('',#879,#79);
#44=LINE('',#880,#80);
#45=LINE('',#882,#81);
#46=LINE('',#883,#82);
#47=LINE('',#885,#83);
#48=LINE('',#886,#84);
#49=LINE('',#888,#85);
#50=LINE('',#889,#86);
#51=LINE('',#891,#87);
#52=LINE('',#892,#88);
#53=LINE('',#894,#89);
#54=LINE('',#895,#90);
#55=LINE('',#897,#91);
#56=LINE('',#898,#92);
#57=LINE('',#900,#93);
#58=LINE('',#901,#94);
#59=LINE('',#903,#95);
#60=LINE('',#904,#96);
#61=LINE('',#906,#97);
#62=LINE('',#919,#98);
#63=VECTOR('',#619,10.);
#64=VECTOR('',#620,10.);
#65=VECTOR('',#647,10.);
#66=VECTOR('',#648,10.);
#67=VECTOR('',#691,10.);
#68=VECTOR('',#692,10.);
#69=VECTOR('',#697,10.);
#70=VECTOR('',#698,10.);
#71=VECTOR('',#701,10.);
#72=VECTOR('',#702,10.);
#73=VECTOR('',#705,10.);
#74=VECTOR('',#706,10.);
#75=VECTOR('',#709,10.);
#76=VECTOR('',#710,10.);
#77=VECTOR('',#715,10.);
#78=VECTOR('',#716,10.);
#79=VECTOR('',#719,10.);
#80=VECTOR('',#720,10.);
#81=VECTOR('',#723,10.);
#82=VECTOR('',#724,10.);
#83=VECTOR('',#727,10.);
#84=VECTOR('',#728,10.);
#85=VECTOR('',#731,10.);
#86=VECTOR('',#732,10.);
#87=VECTOR('',#735,10.);
#88=VECTOR('',#736,10.);
#89=VECTOR('',#739,10.);
#90=VECTOR('',#740,10.);
#91=VECTOR('',#743,10.);
#92=VECTOR('',#744,10.);
#93=VECTOR('',#747,10.);
#94=VECTOR('',#748,10.);
#95=VECTOR('',#751,10.);
#96=VECTOR('',#752,10.);
#97=VECTOR('',#755,10.);
#98=VECTOR('',#776,1.65);
#99=CYLINDRICAL_SURFACE('',#537,2.);
#100=CYLINDRICAL_SURFACE('',#550,2.);
#101=CYLINDRICAL_SURFACE('',#571,2.);
#102=CYLINDRICAL_SURFACE('',#573,2.);
#103=CYLINDRICAL_SURFACE('',#574,2.);
#104=CYLINDRICAL_SURFACE('',#575,2.);
#105=CYLINDRICAL_SURFACE('',#576,2.);
#106=CYLINDRICAL_SURFACE('',#578,2.);
#107=CYLINDRICAL_SURFACE('',#579,2.);
#108=CYLINDRICAL_SURFACE('',#580,2.);
#109=CYLINDRICAL_SURFACE('',#581,2.);
#110=CYLINDRICAL_SURFACE('',#582,2.);
#111=CYLINDRICAL_SURFACE('',#583,2.);
#112=CYLINDRICAL_SURFACE('',#584,2.);
#113=CYLINDRICAL_SURFACE('',#585,2.);
#114=CYLINDRICAL_SURFACE('',#586,2.);
#115=CYLINDRICAL_SURFACE('',#587,2.);
#116=CYLINDRICAL_SURFACE('',#598,1.65);
#117=FACE_OUTER_BOUND('',#153,.T.);
#118=FACE_OUTER_BOUND('',#154,.T.);
#119=FACE_OUTER_BOUND('',#155,.T.);
#120=FACE_OUTER_BOUND('',#156,.T.);
#121=FACE_OUTER_BOUND('',#157,.T.);
#122=FACE_OUTER_BOUND('',#158,.T.);
#123=FACE_OUTER_BOUND('',#159,.T.);
#124=FACE_OUTER_BOUND('',#160,.T.);
#125=FACE_OUTER_BOUND('',#161,.T.);
#126=FACE_OUTER_BOUND('',#162,.T.);
#127=FACE_OUTER_BOUND('',#163,.T.);
#128=FACE_OUTER_BOUND('',#164,.T.);
#129=FACE_OUTER_BOUND('',#165,.T.);
#130=FACE_OUTER_BOUND('',#166,.T.);
#131=FACE_OUTER_BOUND('',#167,.T.);
#132=FACE_OUTER_BOUND('',#168,.T.);
#133=FACE_OUTER_BOUND('',#169,.T.);
#134=FACE_OUTER_BOUND('',#170,.T.);
#135=FACE_OUTER_BOUND('',#171,.T.);
#136=FACE_OUTER_BOUND('',#172,.T.);
#137=FACE_OUTER_BOUND('',#173,.T.);
#138=FACE_OUTER_BOUND('',#174,.T.);
#139=FACE_OUTER_BOUND('',#175,.T.);
#140=FACE_OUTER_BOUND('',#176,.T.);
#141=FACE_OUTER_BOUND('',#177,.T.);
#142=FACE_OUTER_BOUND('',#178,.T.);
#143=FACE_OUTER_BOUND('',#179,.T.);
#144=FACE_OUTER_BOUND('',#180,.T.);
#145=FACE_OUTER_BOUND('',#182,.T.);
#146=FACE_OUTER_BOUND('',#183,.T.);
#147=FACE_OUTER_BOUND('',#184,.T.);
#148=FACE_OUTER_BOUND('',#185,.T.);
#149=FACE_OUTER_BOUND('',#186,.T.);
#150=FACE_OUTER_BOUND('',#188,.T.);
#151=FACE_OUTER_BOUND('',#189,.T.);
#152=FACE_OUTER_BOUND('',#190,.T.);
#153=EDGE_LOOP('',(#329,#330,#331));
#154=EDGE_LOOP('',(#332,#333,#334));
#155=EDGE_LOOP('',(#335,#336,#337,#338));
#156=EDGE_LOOP('',(#339,#340,#341));
#157=EDGE_LOOP('',(#342,#343,#344));
#158=EDGE_LOOP('',(#345,#346,#347));
#159=EDGE_LOOP('',(#348,#349,#350,#351));
#160=EDGE_LOOP('',(#352,#353,#354));
#161=EDGE_LOOP('',(#355,#356,#357));
#162=EDGE_LOOP('',(#358,#359,#360));
#163=EDGE_LOOP('',(#361,#362,#363));
#164=EDGE_LOOP('',(#364,#365,#366));
#165=EDGE_LOOP('',(#367,#368,#369,#370));
#166=EDGE_LOOP('',(#371,#372,#373,#374));
#167=EDGE_LOOP('',(#375,#376,#377,#378));
#168=EDGE_LOOP('',(#379,#380,#381,#382));
#169=EDGE_LOOP('',(#383,#384,#385,#386));
#170=EDGE_LOOP('',(#387,#388,#389,#390));
#171=EDGE_LOOP('',(#391,#392,#393,#394));
#172=EDGE_LOOP('',(#395,#396,#397,#398));
#173=EDGE_LOOP('',(#399,#400,#401,#402));
#174=EDGE_LOOP('',(#403,#404,#405,#406));
#175=EDGE_LOOP('',(#407,#408,#409,#410));
#176=EDGE_LOOP('',(#411,#412,#413,#414));
#177=EDGE_LOOP('',(#415,#416,#417,#418));
#178=EDGE_LOOP('',(#419,#420,#421,#422));
#179=EDGE_LOOP('',(#423,#424,#425,#426));
#180=EDGE_LOOP('',(#427,#428,#429,#430));
#181=EDGE_LOOP('',(#431));
#182=EDGE_LOOP('',(#432,#433,#434,#435));
#183=EDGE_LOOP('',(#436,#437,#438,#439,#440,#441));
#184=EDGE_LOOP('',(#442,#443,#444,#445));
#185=EDGE_LOOP('',(#446,#447,#448,#449,#450,#451));
#186=EDGE_LOOP('',(#452,#453,#454,#455));
#187=EDGE_LOOP('',(#456));
#188=EDGE_LOOP('',(#457,#458,#459,#460));
#189=EDGE_LOOP('',(#461,#462,#463,#464));
#190=EDGE_LOOP('',(#465,#466,#467,#468));
#191=CIRCLE('',#530,2.);
#192=CIRCLE('',#531,2.);
#193=CIRCLE('',#532,2.);
#194=CIRCLE('',#534,2.);
#195=CIRCLE('',#535,2.);
#196=CIRCLE('',#536,2.);
#197=CIRCLE('',#539,2.);
#198=CIRCLE('',#540,2.);
#199=CIRCLE('',#541,2.);
#200=CIRCLE('',#543,2.);
#201=CIRCLE('',#544,1.99999999999999);
#202=CIRCLE('',#545,2.);
#203=CIRCLE('',#547,2.);
#204=CIRCLE('',#548,2.);
#205=CIRCLE('',#549,2.);
#206=CIRCLE('',#552,2.);
#207=CIRCLE('',#553,2.);
#208=CIRCLE('',#554,2.);
#209=CIRCLE('',#556,2.);
#210=CIRCLE('',#557,2.);
#211=CIRCLE('',#558,2.);
#212=CIRCLE('',#560,2.);
#213=CIRCLE('',#561,2.);
#214=CIRCLE('',#562,2.);
#215=CIRCLE('',#564,2.);
#216=CIRCLE('',#565,2.);
#217=CIRCLE('',#566,2.);
#218=CIRCLE('',#568,2.);
#219=CIRCLE('',#569,2.);
#220=CIRCLE('',#570,2.);
#221=CIRCLE('',#589,1.65);
#222=CIRCLE('',#595,1.65);
#223=VERTEX_POINT('',#779);
#224=VERTEX_POINT('',#780);
#225=VERTEX_POINT('',#782);
#226=VERTEX_POINT('',#786);
#227=VERTEX_POINT('',#787);
#228=VERTEX_POINT('',#789);
#229=VERTEX_POINT('',#796);
#230=VERTEX_POINT('',#797);
#231=VERTEX_POINT('',#799);
#232=VERTEX_POINT('',#803);
#233=VERTEX_POINT('',#804);
#234=VERTEX_POINT('',#806);
#235=VERTEX_POINT('',#810);
#236=VERTEX_POINT('',#811);
#237=VERTEX_POINT('',#813);
#238=VERTEX_POINT('',#820);
#239=VERTEX_POINT('',#821);
#240=VERTEX_POINT('',#823);
#241=VERTEX_POINT('',#827);
#242=VERTEX_POINT('',#828);
#243=VERTEX_POINT('',#830);
#244=VERTEX_POINT('',#834);
#245=VERTEX_POINT('',#835);
#246=VERTEX_POINT('',#837);
#247=VERTEX_POINT('',#841);
#248=VERTEX_POINT('',#842);
#249=VERTEX_POINT('',#844);
#250=VERTEX_POINT('',#848);
#251=VERTEX_POINT('',#849);
#252=VERTEX_POINT('',#851);
#253=VERTEX_POINT('',#855);
#254=VERTEX_POINT('',#857);
#255=VERTEX_POINT('',#870);
#256=VERTEX_POINT('',#872);
#257=VERTEX_POINT('',#907);
#258=VERTEX_POINT('',#914);
#259=EDGE_CURVE('',#223,#224,#191,.F.);
#260=EDGE_CURVE('',#225,#223,#192,.F.);
#261=EDGE_CURVE('',#224,#225,#193,.F.);
#262=EDGE_CURVE('',#226,#227,#194,.F.);
#263=EDGE_CURVE('',#228,#226,#195,.F.);
#264=EDGE_CURVE('',#227,#228,#196,.F.);
#265=EDGE_CURVE('',#223,#228,#27,.T.);
#266=EDGE_CURVE('',#226,#225,#28,.T.);
#267=EDGE_CURVE('',#229,#230,#197,.F.);
#268=EDGE_CURVE('',#231,#229,#198,.F.);
#269=EDGE_CURVE('',#230,#231,#199,.F.);
#270=EDGE_CURVE('',#232,#233,#200,.F.);
#271=EDGE_CURVE('',#234,#232,#201,.F.);
#272=EDGE_CURVE('',#233,#234,#202,.F.);
#273=EDGE_CURVE('',#235,#236,#203,.F.);
#274=EDGE_CURVE('',#237,#235,#204,.F.);
#275=EDGE_CURVE('',#236,#237,#205,.F.);
#276=EDGE_CURVE('',#235,#234,#29,.T.);
#277=EDGE_CURVE('',#232,#237,#30,.T.);
#278=EDGE_CURVE('',#238,#239,#206,.F.);
#279=EDGE_CURVE('',#240,#238,#207,.F.);
#280=EDGE_CURVE('',#239,#240,#208,.F.);
#281=EDGE_CURVE('',#241,#242,#209,.F.);
#282=EDGE_CURVE('',#243,#241,#210,.F.);
#283=EDGE_CURVE('',#242,#243,#211,.F.);
#284=EDGE_CURVE('',#244,#245,#212,.F.);
#285=EDGE_CURVE('',#246,#244,#213,.F.);
#286=EDGE_CURVE('',#245,#246,#214,.F.);
#287=EDGE_CURVE('',#247,#248,#215,.F.);
#288=EDGE_CURVE('',#249,#247,#216,.F.);
#289=EDGE_CURVE('',#248,#249,#217,.F.);
#290=EDGE_CURVE('',#250,#251,#218,.F.);
#291=EDGE_CURVE('',#252,#250,#219,.F.);
#292=EDGE_CURVE('',#251,#252,#220,.F.);
#293=EDGE_CURVE('',#253,#252,#31,.T.);
#294=EDGE_CURVE('',#250,#254,#32,.T.);
#295=EDGE_CURVE('',#254,#253,#25,.T.);
#296=EDGE_CURVE('',#252,#249,#33,.T.);
#297=EDGE_CURVE('',#247,#251,#34,.T.);
#298=EDGE_CURVE('',#244,#250,#35,.T.);
#299=EDGE_CURVE('',#251,#246,#36,.T.);
#300=EDGE_CURVE('',#254,#243,#37,.T.);
#301=EDGE_CURVE('',#241,#253,#38,.T.);
#302=EDGE_CURVE('',#255,#248,#39,.T.);
#303=EDGE_CURVE('',#249,#256,#40,.T.);
#304=EDGE_CURVE('',#256,#255,#26,.T.);
#305=EDGE_CURVE('',#238,#247,#41,.T.);
#306=EDGE_CURVE('',#248,#240,#42,.T.);
#307=EDGE_CURVE('',#239,#245,#43,.T.);
#308=EDGE_CURVE('',#246,#238,#44,.T.);
#309=EDGE_CURVE('',#245,#236,#45,.T.);
#310=EDGE_CURVE('',#237,#244,#46,.T.);
#311=EDGE_CURVE('',#233,#242,#47,.T.);
#312=EDGE_CURVE('',#243,#232,#48,.T.);
#313=EDGE_CURVE('',#242,#230,#49,.T.);
#314=EDGE_CURVE('',#231,#241,#50,.T.);
#315=EDGE_CURVE('',#256,#231,#51,.T.);
#316=EDGE_CURVE('',#229,#255,#52,.T.);
#317=EDGE_CURVE('',#227,#239,#53,.T.);
#318=EDGE_CURVE('',#240,#226,#54,.T.);
#319=EDGE_CURVE('',#236,#227,#55,.T.);
#320=EDGE_CURVE('',#228,#235,#56,.T.);
#321=EDGE_CURVE('',#224,#233,#57,.T.);
#322=EDGE_CURVE('',#234,#223,#58,.T.);
#323=EDGE_CURVE('',#230,#224,#59,.T.);
#324=EDGE_CURVE('',#225,#229,#60,.T.);
#325=EDGE_CURVE('',#253,#256,#61,.T.);
#326=EDGE_CURVE('',#257,#257,#221,.T.);
#327=EDGE_CURVE('',#258,#258,#222,.T.);
#328=EDGE_CURVE('',#257,#258,#62,.T.);
#329=ORIENTED_EDGE('',*,*,#259,.F.);
#330=ORIENTED_EDGE('',*,*,#260,.F.);
#331=ORIENTED_EDGE('',*,*,#261,.F.);
#332=ORIENTED_EDGE('',*,*,#262,.F.);
#333=ORIENTED_EDGE('',*,*,#263,.F.);
#334=ORIENTED_EDGE('',*,*,#264,.F.);
#335=ORIENTED_EDGE('',*,*,#260,.T.);
#336=ORIENTED_EDGE('',*,*,#265,.T.);
#337=ORIENTED_EDGE('',*,*,#263,.T.);
#338=ORIENTED_EDGE('',*,*,#266,.T.);
#339=ORIENTED_EDGE('',*,*,#267,.F.);
#340=ORIENTED_EDGE('',*,*,#268,.F.);
#341=ORIENTED_EDGE('',*,*,#269,.F.);
#342=ORIENTED_EDGE('',*,*,#270,.F.);
#343=ORIENTED_EDGE('',*,*,#271,.F.);
#344=ORIENTED_EDGE('',*,*,#272,.F.);
#345=ORIENTED_EDGE('',*,*,#273,.F.);
#346=ORIENTED_EDGE('',*,*,#274,.F.);
#347=ORIENTED_EDGE('',*,*,#275,.F.);
#348=ORIENTED_EDGE('',*,*,#274,.T.);
#349=ORIENTED_EDGE('',*,*,#276,.T.);
#350=ORIENTED_EDGE('',*,*,#271,.T.);
#351=ORIENTED_EDGE('',*,*,#277,.T.);
#352=ORIENTED_EDGE('',*,*,#278,.F.);
#353=ORIENTED_EDGE('',*,*,#279,.F.);
#354=ORIENTED_EDGE('',*,*,#280,.F.);
#355=ORIENTED_EDGE('',*,*,#281,.F.);
#356=ORIENTED_EDGE('',*,*,#282,.F.);
#357=ORIENTED_EDGE('',*,*,#283,.F.);
#358=ORIENTED_EDGE('',*,*,#284,.F.);
#359=ORIENTED_EDGE('',*,*,#285,.F.);
#360=ORIENTED_EDGE('',*,*,#286,.F.);
#361=ORIENTED_EDGE('',*,*,#287,.F.);
#362=ORIENTED_EDGE('',*,*,#288,.F.);
#363=ORIENTED_EDGE('',*,*,#289,.F.);
#364=ORIENTED_EDGE('',*,*,#290,.F.);
#365=ORIENTED_EDGE('',*,*,#291,.F.);
#366=ORIENTED_EDGE('',*,*,#292,.F.);
#367=ORIENTED_EDGE('',*,*,#293,.T.);
#368=ORIENTED_EDGE('',*,*,#291,.T.);
#369=ORIENTED_EDGE('',*,*,#294,.T.);
#370=ORIENTED_EDGE('',*,*,#295,.T.);
#371=ORIENTED_EDGE('',*,*,#292,.T.);
#372=ORIENTED_EDGE('',*,*,#296,.T.);
#373=ORIENTED_EDGE('',*,*,#288,.T.);
#374=ORIENTED_EDGE('',*,*,#297,.T.);
#375=ORIENTED_EDGE('',*,*,#285,.T.);
#376=ORIENTED_EDGE('',*,*,#298,.T.);
#377=ORIENTED_EDGE('',*,*,#290,.T.);
#378=ORIENTED_EDGE('',*,*,#299,.T.);
#379=ORIENTED_EDGE('',*,*,#300,.T.);
#380=ORIENTED_EDGE('',*,*,#282,.T.);
#381=ORIENTED_EDGE('',*,*,#301,.T.);
#382=ORIENTED_EDGE('',*,*,#295,.F.);
#383=ORIENTED_EDGE('',*,*,#302,.T.);
#384=ORIENTED_EDGE('',*,*,#289,.T.);
#385=ORIENTED_EDGE('',*,*,#303,.T.);
#386=ORIENTED_EDGE('',*,*,#304,.T.);
#387=ORIENTED_EDGE('',*,*,#279,.T.);
#388=ORIENTED_EDGE('',*,*,#305,.T.);
#389=ORIENTED_EDGE('',*,*,#287,.T.);
#390=ORIENTED_EDGE('',*,*,#306,.T.);
#391=ORIENTED_EDGE('',*,*,#278,.T.);
#392=ORIENTED_EDGE('',*,*,#307,.T.);
#393=ORIENTED_EDGE('',*,*,#286,.T.);
#394=ORIENTED_EDGE('',*,*,#308,.T.);
#395=ORIENTED_EDGE('',*,*,#284,.T.);
#396=ORIENTED_EDGE('',*,*,#309,.T.);
#397=ORIENTED_EDGE('',*,*,#275,.T.);
#398=ORIENTED_EDGE('',*,*,#310,.T.);
#399=ORIENTED_EDGE('',*,*,#270,.T.);
#400=ORIENTED_EDGE('',*,*,#311,.T.);
#401=ORIENTED_EDGE('',*,*,#283,.T.);
#402=ORIENTED_EDGE('',*,*,#312,.T.);
#403=ORIENTED_EDGE('',*,*,#281,.T.);
#404=ORIENTED_EDGE('',*,*,#313,.T.);
#405=ORIENTED_EDGE('',*,*,#269,.T.);
#406=ORIENTED_EDGE('',*,*,#314,.T.);
#407=ORIENTED_EDGE('',*,*,#315,.T.);
#408=ORIENTED_EDGE('',*,*,#268,.T.);
#409=ORIENTED_EDGE('',*,*,#316,.T.);
#410=ORIENTED_EDGE('',*,*,#304,.F.);
#411=ORIENTED_EDGE('',*,*,#262,.T.);
#412=ORIENTED_EDGE('',*,*,#317,.T.);
#413=ORIENTED_EDGE('',*,*,#280,.T.);
#414=ORIENTED_EDGE('',*,*,#318,.T.);
#415=ORIENTED_EDGE('',*,*,#273,.T.);
#416=ORIENTED_EDGE('',*,*,#319,.T.);
#417=ORIENTED_EDGE('',*,*,#264,.T.);
#418=ORIENTED_EDGE('',*,*,#320,.T.);
#419=ORIENTED_EDGE('',*,*,#259,.T.);
#420=ORIENTED_EDGE('',*,*,#321,.T.);
#421=ORIENTED_EDGE('',*,*,#272,.T.);
#422=ORIENTED_EDGE('',*,*,#322,.T.);
#423=ORIENTED_EDGE('',*,*,#267,.T.);
#424=ORIENTED_EDGE('',*,*,#323,.T.);
#425=ORIENTED_EDGE('',*,*,#261,.T.);
#426=ORIENTED_EDGE('',*,*,#324,.T.);
#427=ORIENTED_EDGE('',*,*,#303,.F.);
#428=ORIENTED_EDGE('',*,*,#296,.F.);
#429=ORIENTED_EDGE('',*,*,#293,.F.);
#430=ORIENTED_EDGE('',*,*,#325,.T.);
#431=ORIENTED_EDGE('',*,*,#326,.T.);
#432=ORIENTED_EDGE('',*,*,#276,.F.);
#433=ORIENTED_EDGE('',*,*,#320,.F.);
#434=ORIENTED_EDGE('',*,*,#265,.F.);
#435=ORIENTED_EDGE('',*,*,#322,.F.);
#436=ORIENTED_EDGE('',*,*,#294,.F.);
#437=ORIENTED_EDGE('',*,*,#298,.F.);
#438=ORIENTED_EDGE('',*,*,#310,.F.);
#439=ORIENTED_EDGE('',*,*,#277,.F.);
#440=ORIENTED_EDGE('',*,*,#312,.F.);
#441=ORIENTED_EDGE('',*,*,#300,.F.);
#442=ORIENTED_EDGE('',*,*,#297,.F.);
#443=ORIENTED_EDGE('',*,*,#305,.F.);
#444=ORIENTED_EDGE('',*,*,#308,.F.);
#445=ORIENTED_EDGE('',*,*,#299,.F.);
#446=ORIENTED_EDGE('',*,*,#302,.F.);
#447=ORIENTED_EDGE('',*,*,#316,.F.);
#448=ORIENTED_EDGE('',*,*,#324,.F.);
#449=ORIENTED_EDGE('',*,*,#266,.F.);
#450=ORIENTED_EDGE('',*,*,#318,.F.);
#451=ORIENTED_EDGE('',*,*,#306,.F.);
#452=ORIENTED_EDGE('',*,*,#307,.F.);
#453=ORIENTED_EDGE('',*,*,#317,.F.);
#454=ORIENTED_EDGE('',*,*,#319,.F.);
#455=ORIENTED_EDGE('',*,*,#309,.F.);
#456=ORIENTED_EDGE('',*,*,#327,.T.);
#457=ORIENTED_EDGE('',*,*,#311,.F.);
#458=ORIENTED_EDGE('',*,*,#321,.F.);
#459=ORIENTED_EDGE('',*,*,#323,.F.);
#460=ORIENTED_EDGE('',*,*,#313,.F.);
#461=ORIENTED_EDGE('',*,*,#315,.F.);
#462=ORIENTED_EDGE('',*,*,#325,.F.);
#463=ORIENTED_EDGE('',*,*,#301,.F.);
#464=ORIENTED_EDGE('',*,*,#314,.F.);
#465=ORIENTED_EDGE('',*,*,#326,.F.);
#466=ORIENTED_EDGE('',*,*,#328,.T.);
#467=ORIENTED_EDGE('',*,*,#327,.F.);
#468=ORIENTED_EDGE('',*,*,#328,.F.);
#469=SPHERICAL_SURFACE('',#529,2.);
#470=SPHERICAL_SURFACE('',#533,2.);
#471=SPHERICAL_SURFACE('',#538,2.);
#472=SPHERICAL_SURFACE('',#542,1.99999999999999);
#473=SPHERICAL_SURFACE('',#546,2.);
#474=SPHERICAL_SURFACE('',#551,2.);
#475=SPHERICAL_SURFACE('',#555,2.);
#476=SPHERICAL_SURFACE('',#559,2.);
#477=SPHERICAL_SURFACE('',#563,2.);
#478=SPHERICAL_SURFACE('',#567,2.);
#479=ADVANCED_FACE('',(#117),#469,.T.);
#480=ADVANCED_FACE('',(#118),#470,.T.);
#481=ADVANCED_FACE('',(#119),#99,.T.);
#482=ADVANCED_FACE('',(#120),#471,.T.);
#483=ADVANCED_FACE('',(#121),#472,.T.);
#484=ADVANCED_FACE('',(#122),#473,.T.);
#485=ADVANCED_FACE('',(#123),#100,.T.);
#486=ADVANCED_FACE('',(#124),#474,.T.);
#487=ADVANCED_FACE('',(#125),#475,.T.);
#488=ADVANCED_FACE('',(#126),#476,.T.);
#489=ADVANCED_FACE('',(#127),#477,.T.);
#490=ADVANCED_FACE('',(#128),#478,.T.);
#491=ADVANCED_FACE('',(#129),#101,.T.);
#492=ADVANCED_FACE('',(#130),#102,.T.);
#493=ADVANCED_FACE('',(#131),#103,.T.);
#494=ADVANCED_FACE('',(#132),#104,.T.);
#495=ADVANCED_FACE('',(#133),#105,.T.);
#496=ADVANCED_FACE('',(#134),#106,.T.);
#497=ADVANCED_FACE('',(#135),#107,.T.);
#498=ADVANCED_FACE('',(#136),#108,.T.);
#499=ADVANCED_FACE('',(#137),#109,.T.);
#500=ADVANCED_FACE('',(#138),#110,.T.);
#501=ADVANCED_FACE('',(#139),#111,.T.);
#502=ADVANCED_FACE('',(#140),#112,.T.);
#503=ADVANCED_FACE('',(#141),#113,.T.);
#504=ADVANCED_FACE('',(#142),#114,.T.);
#505=ADVANCED_FACE('',(#143),#115,.T.);
#506=ADVANCED_FACE('',(#144,#15),#17,.F.);
#507=ADVANCED_FACE('',(#145),#18,.T.);
#508=ADVANCED_FACE('',(#146),#19,.T.);
#509=ADVANCED_FACE('',(#147),#20,.T.);
#510=ADVANCED_FACE('',(#148),#21,.T.);
#511=ADVANCED_FACE('',(#149,#16),#22,.T.);
#512=ADVANCED_FACE('',(#150),#23,.T.);
#513=ADVANCED_FACE('',(#151),#24,.T.);
#514=ADVANCED_FACE('',(#152),#116,.F.);
#515=CLOSED_SHELL('',(#479,#480,#481,#482,#483,#484,#485,#486,#487,#488,
#489,#490,#491,#492,#493,#494,#495,#496,#497,#498,#499,#500,#501,#502,#503,
#504,#505,#506,#507,#508,#509,#510,#511,#512,#513,#514));
#516=DERIVED_UNIT_ELEMENT(#518,1.);
#517=DERIVED_UNIT_ELEMENT(#925,-3.);
#518=(
MASS_UNIT()
NAMED_UNIT(*)
SI_UNIT(.KILO.,.GRAM.)
);
#519=DERIVED_UNIT((#516,#517));
#520=MEASURE_REPRESENTATION_ITEM('density measure',
POSITIVE_RATIO_MEASURE(7850.),#519);
#521=PROPERTY_DEFINITION_REPRESENTATION(#526,#523);
#522=PROPERTY_DEFINITION_REPRESENTATION(#527,#524);
#523=REPRESENTATION('material name',(#525),#922);
#524=REPRESENTATION('density',(#520),#922);
#525=DESCRIPTIVE_REPRESENTATION_ITEM('Steel','Steel');
#526=PROPERTY_DEFINITION('material property','material name',#932);
#527=PROPERTY_DEFINITION('material property','density of part',#932);
#528=AXIS2_PLACEMENT_3D('',#777,#599,#600);
#529=AXIS2_PLACEMENT_3D('',#778,#601,#602);
#530=AXIS2_PLACEMENT_3D('',#781,#603,#604);
#531=AXIS2_PLACEMENT_3D('',#783,#605,#606);
#532=AXIS2_PLACEMENT_3D('',#784,#607,#608);
#533=AXIS2_PLACEMENT_3D('',#785,#609,#610);
#534=AXIS2_PLACEMENT_3D('',#788,#611,#612);
#535=AXIS2_PLACEMENT_3D('',#790,#613,#614);
#536=AXIS2_PLACEMENT_3D('',#791,#615,#616);
#537=AXIS2_PLACEMENT_3D('',#792,#617,#618);
#538=AXIS2_PLACEMENT_3D('',#795,#621,#622);
#539=AXIS2_PLACEMENT_3D('',#798,#623,#624);
#540=AXIS2_PLACEMENT_3D('',#800,#625,#626);
#541=AXIS2_PLACEMENT_3D('',#801,#627,#628);
#542=AXIS2_PLACEMENT_3D('',#802,#629,#630);
#543=AXIS2_PLACEMENT_3D('',#805,#631,#632);
#544=AXIS2_PLACEMENT_3D('',#807,#633,#634);
#545=AXIS2_PLACEMENT_3D('',#808,#635,#636);
#546=AXIS2_PLACEMENT_3D('',#809,#637,#638);
#547=AXIS2_PLACEMENT_3D('',#812,#639,#640);
#548=AXIS2_PLACEMENT_3D('',#814,#641,#642);
#549=AXIS2_PLACEMENT_3D('',#815,#643,#644);
#550=AXIS2_PLACEMENT_3D('',#816,#645,#646);
#551=AXIS2_PLACEMENT_3D('',#819,#649,#650);
#552=AXIS2_PLACEMENT_3D('',#822,#651,#652);
#553=AXIS2_PLACEMENT_3D('',#824,#653,#654);
#554=AXIS2_PLACEMENT_3D('',#825,#655,#656);
#555=AXIS2_PLACEMENT_3D('',#826,#657,#658);
#556=AXIS2_PLACEMENT_3D('',#829,#659,#660);
#557=AXIS2_PLACEMENT_3D('',#831,#661,#662);
#558=AXIS2_PLACEMENT_3D('',#832,#663,#664);
#559=AXIS2_PLACEMENT_3D('',#833,#665,#666);
#560=AXIS2_PLACEMENT_3D('',#836,#667,#668);
#561=AXIS2_PLACEMENT_3D('',#838,#669,#670);
#562=AXIS2_PLACEMENT_3D('',#839,#671,#672);
#563=AXIS2_PLACEMENT_3D('',#840,#673,#674);
#564=AXIS2_PLACEMENT_3D('',#843,#675,#676);
#565=AXIS2_PLACEMENT_3D('',#845,#677,#678);
#566=AXIS2_PLACEMENT_3D('',#846,#679,#680);
#567=AXIS2_PLACEMENT_3D('',#847,#681,#682);
#568=AXIS2_PLACEMENT_3D('',#850,#683,#684);
#569=AXIS2_PLACEMENT_3D('',#852,#685,#686);
#570=AXIS2_PLACEMENT_3D('',#853,#687,#688);
#571=AXIS2_PLACEMENT_3D('',#854,#689,#690);
#572=AXIS2_PLACEMENT_3D('',#859,#693,#694);
#573=AXIS2_PLACEMENT_3D('',#860,#695,#696);
#574=AXIS2_PLACEMENT_3D('',#863,#699,#700);
#575=AXIS2_PLACEMENT_3D('',#866,#703,#704);
#576=AXIS2_PLACEMENT_3D('',#869,#707,#708);
#577=AXIS2_PLACEMENT_3D('',#874,#711,#712);
#578=AXIS2_PLACEMENT_3D('',#875,#713,#714);
#579=AXIS2_PLACEMENT_3D('',#878,#717,#718);
#580=AXIS2_PLACEMENT_3D('',#881,#721,#722);
#581=AXIS2_PLACEMENT_3D('',#884,#725,#726);
#582=AXIS2_PLACEMENT_3D('',#887,#729,#730);
#583=AXIS2_PLACEMENT_3D('',#890,#733,#734);
#584=AXIS2_PLACEMENT_3D('',#893,#737,#738);
#585=AXIS2_PLACEMENT_3D('',#896,#741,#742);
#586=AXIS2_PLACEMENT_3D('',#899,#745,#746);
#587=AXIS2_PLACEMENT_3D('',#902,#749,#750);
#588=AXIS2_PLACEMENT_3D('',#905,#753,#754);
#589=AXIS2_PLACEMENT_3D('',#908,#756,#757);
#590=AXIS2_PLACEMENT_3D('',#909,#758,#759);
#591=AXIS2_PLACEMENT_3D('',#910,#760,#761);
#592=AXIS2_PLACEMENT_3D('',#911,#762,#763);
#593=AXIS2_PLACEMENT_3D('',#912,#764,#765);
#594=AXIS2_PLACEMENT_3D('',#913,#766,#767);
#595=AXIS2_PLACEMENT_3D('',#915,#768,#769);
#596=AXIS2_PLACEMENT_3D('',#916,#770,#771);
#597=AXIS2_PLACEMENT_3D('',#917,#772,#773);
#598=AXIS2_PLACEMENT_3D('',#918,#774,#775);
#599=DIRECTION('axis',(0.,0.,1.));
#600=DIRECTION('refdir',(1.,0.,0.));
#601=DIRECTION('center_axis',(0.408248290463863,-0.816496580927727,-0.40824829046386));
#602=DIRECTION('ref_axis',(-0.577350269189627,-0.577350269189627,0.577350269189624));
#603=DIRECTION('center_axis',(-1.,0.,0.));
#604=DIRECTION('ref_axis',(0.,0.,1.));
#605=DIRECTION('center_axis',(0.,-1.,0.));
#606=DIRECTION('ref_axis',(-1.,0.,0.));
#607=DIRECTION('center_axis',(0.,0.,1.));
#608=DIRECTION('ref_axis',(0.,-1.,0.));
#609=DIRECTION('center_axis',(-0.408248290463862,-0.816496580927725,0.408248290463866));
#610=DIRECTION('ref_axis',(-0.577350269189625,0.577350269189625,0.577350269189628));
#611=DIRECTION('center_axis',(0.,0.,1.));
#612=DIRECTION('ref_axis',(-1.,0.,0.));
#613=DIRECTION('center_axis',(0.,1.,0.));
#614=DIRECTION('ref_axis',(0.,0.,1.));
#615=DIRECTION('center_axis',(-1.,0.,0.));
#616=DIRECTION('ref_axis',(0.,1.,0.));
#617=DIRECTION('center_axis',(0.,-1.,0.));
#618=DIRECTION('ref_axis',(-0.707106781186546,0.,0.707106781186549));
#619=DIRECTION('',(0.,1.,0.));
#620=DIRECTION('',(0.,-1.,0.));
#621=DIRECTION('center_axis',(0.408248290463862,-0.816496580927725,0.408248290463866));
#622=DIRECTION('ref_axis',(-0.577350269189625,-0.577350269189625,-0.577350269189628));
#623=DIRECTION('center_axis',(0.,0.,-1.));
#624=DIRECTION('ref_axis',(-1.,0.,0.));
#625=DIRECTION('center_axis',(0.,-1.,0.));
#626=DIRECTION('ref_axis',(0.,0.,-1.));
#627=DIRECTION('center_axis',(-1.,0.,0.));
#628=DIRECTION('ref_axis',(0.,-1.,0.));
#629=DIRECTION('center_axis',(-0.816496580927725,-0.408248290463866,0.408248290463861));
#630=DIRECTION('ref_axis',(0.577350269189626,-0.577350269189627,0.577350269189624));
#631=DIRECTION('center_axis',(0.,-4.44089209850063E-15,1.));
#632=DIRECTION('ref_axis',(1.,0.,0.));
#633=DIRECTION('center_axis',(0.,-1.,0.));
#634=DIRECTION('ref_axis',(0.,0.,1.));
#635=DIRECTION('center_axis',(1.,0.,0.));
#636=DIRECTION('ref_axis',(0.,-1.,0.));
#637=DIRECTION('center_axis',(-0.816496580927726,0.408248290463866,0.40824829046386));
#638=DIRECTION('ref_axis',(0.577350269189627,0.577350269189627,0.577350269189623));
#639=DIRECTION('center_axis',(1.,0.,0.));
#640=DIRECTION('ref_axis',(0.,0.,1.));
#641=DIRECTION('center_axis',(0.,1.,0.));
#642=DIRECTION('ref_axis',(1.,0.,0.));
#643=DIRECTION('center_axis',(-4.44089209850063E-15,0.,1.));
#644=DIRECTION('ref_axis',(0.,1.,0.));
#645=DIRECTION('center_axis',(0.,1.,0.));
#646=DIRECTION('ref_axis',(0.707106781186549,0.,0.707106781186546));
#647=DIRECTION('',(0.,-1.,0.));
#648=DIRECTION('',(0.,1.,0.));
#649=DIRECTION('center_axis',(-0.408248290463863,-0.816496580927726,-0.408248290463863));
#650=DIRECTION('ref_axis',(-0.577350269189626,0.577350269189626,-0.577350269189626));
#651=DIRECTION('center_axis',(-1.,0.,0.));
#652=DIRECTION('ref_axis',(0.,0.,-1.));
#653=DIRECTION('center_axis',(0.,1.,0.));
#654=DIRECTION('ref_axis',(-1.,0.,0.));
#655=DIRECTION('center_axis',(0.,0.,-1.));
#656=DIRECTION('ref_axis',(0.,1.,0.));
#657=DIRECTION('center_axis',(-0.816496580927726,-0.408248290463866,-0.40824829046386));
#658=DIRECTION('ref_axis',(0.577350269189627,-0.577350269189628,-0.577350269189623));
#659=DIRECTION('center_axis',(1.,0.,0.));
#660=DIRECTION('ref_axis',(0.,0.,-1.));
#661=DIRECTION('center_axis',(0.,-1.,0.));
#662=DIRECTION('ref_axis',(1.,0.,0.));
#663=DIRECTION('center_axis',(-4.44089209850063E-15,0.,-1.));
#664=DIRECTION('ref_axis',(0.,-1.,0.));
#665=DIRECTION('center_axis',(0.408248290463863,-0.816496580927726,-0.408248290463863));
#666=DIRECTION('ref_axis',(0.577350269189626,0.577350269189626,-0.577350269189626));
#667=DIRECTION('center_axis',(0.,0.,-1.));
#668=DIRECTION('ref_axis',(1.,0.,0.));
#669=DIRECTION('center_axis',(0.,1.,0.));
#670=DIRECTION('ref_axis',(0.,0.,-1.));
#671=DIRECTION('center_axis',(1.,0.,0.));
#672=DIRECTION('ref_axis',(0.,1.,0.));
#673=DIRECTION('center_axis',(-0.816496580927726,0.408248290463863,0.408248290463863));
#674=DIRECTION('ref_axis',(-0.577350269189626,-0.577350269189626,-0.577350269189626));
#675=DIRECTION('center_axis',(0.,-1.,0.));
#676=DIRECTION('ref_axis',(0.,0.,-1.));
#677=DIRECTION('center_axis',(-1.,0.,0.));
#678=DIRECTION('ref_axis',(0.,-1.,0.));
#679=DIRECTION('center_axis',(0.,0.,-1.));
#680=DIRECTION('ref_axis',(-1.,0.,0.));
#681=DIRECTION('center_axis',(-0.408248290463862,-0.816496580927726,0.408248290463863));
#682=DIRECTION('ref_axis',(0.577350269189625,-0.577350269189626,-0.577350269189627));
#683=DIRECTION('center_axis',(0.,-1.,0.));
#684=DIRECTION('ref_axis',(1.,0.,0.));
#685=DIRECTION('center_axis',(0.,0.,-1.));
#686=DIRECTION('ref_axis',(0.,-1.,0.));
#687=DIRECTION('center_axis',(1.,0.,0.));
#688=DIRECTION('ref_axis',(0.,0.,-1.));
#689=DIRECTION('center_axis',(0.,0.,1.));
#690=DIRECTION('ref_axis',(0.707106781186547,-0.707106781186548,0.));
#691=DIRECTION('',(0.,0.,-1.));
#692=DIRECTION('',(0.,0.,1.));
#693=DIRECTION('center_axis',(0.,0.707106781186546,-0.707106781186549));
#694=DIRECTION('ref_axis',(0.,-0.707106781186549,-0.707106781186546));
#695=DIRECTION('center_axis',(1.,0.,0.));
#696=DIRECTION('ref_axis',(0.,-0.707106781186548,-0.707106781186547));
#697=DIRECTION('',(-1.,0.,0.));
#698=DIRECTION('',(1.,0.,0.));
#699=DIRECTION('center_axis',(0.,1.,0.));
#700=DIRECTION('ref_axis',(0.707106781186547,0.,-0.707106781186548));
#701=DIRECTION('',(0.,-1.,0.));
#702=DIRECTION('',(0.,1.,0.));
#703=DIRECTION('center_axis',(0.,-1.,0.));
#704=DIRECTION('ref_axis',(0.707106781186549,0.,-0.707106781186546));
#705=DIRECTION('',(0.,-1.,0.));
#706=DIRECTION('',(0.,1.,0.));
#707=DIRECTION('center_axis',(0.,0.,-1.));
#708=DIRECTION('ref_axis',(-0.707106781186548,-0.707106781186548,0.));
#709=DIRECTION('',(0.,0.,-1.));
#710=DIRECTION('',(0.,0.,1.));
#711=DIRECTION('center_axis',(0.,0.707106781186548,-0.707106781186547));
#712=DIRECTION('ref_axis',(0.,0.707106781186547,0.707106781186548));
#713=DIRECTION('center_axis',(0.,1.,0.));
#714=DIRECTION('ref_axis',(-0.707106781186548,0.,-0.707106781186548));
#715=DIRECTION('',(0.,-1.,0.));
#716=DIRECTION('',(0.,1.,0.));
#717=DIRECTION('center_axis',(-1.,0.,0.));
#718=DIRECTION('ref_axis',(0.,0.707106781186548,-0.707106781186547));
#719=DIRECTION('',(1.,0.,0.));
#720=DIRECTION('',(-1.,0.,0.));
#721=DIRECTION('center_axis',(0.,0.,-1.));
#722=DIRECTION('ref_axis',(0.707106781186547,0.707106781186548,0.));
#723=DIRECTION('',(0.,0.,1.));
#724=DIRECTION('',(0.,0.,-1.));
#725=DIRECTION('center_axis',(0.,0.,1.));
#726=DIRECTION('ref_axis',(0.707106781186548,-0.707106781186547,0.));
#727=DIRECTION('',(0.,0.,-1.));
#728=DIRECTION('',(0.,0.,1.));
#729=DIRECTION('center_axis',(1.,0.,0.));
#730=DIRECTION('ref_axis',(0.,-0.707106781186545,-0.70710678118655));
#731=DIRECTION('',(-1.,0.,0.));
#732=DIRECTION('',(1.,0.,0.));
#733=DIRECTION('center_axis',(0.,-1.,0.));
#734=DIRECTION('ref_axis',(-0.707106781186546,0.,-0.707106781186549));
#735=DIRECTION('',(0.,-1.,0.));
#736=DIRECTION('',(0.,1.,0.));
#737=DIRECTION('center_axis',(0.,0.,1.));
#738=DIRECTION('ref_axis',(-0.707106781186547,0.707106781186548,0.));
#739=DIRECTION('',(0.,0.,-1.));
#740=DIRECTION('',(0.,0.,1.));
#741=DIRECTION('center_axis',(1.,0.,0.));
#742=DIRECTION('ref_axis',(0.,0.707106781186546,0.707106781186549));
#743=DIRECTION('',(-1.,0.,0.));
#744=DIRECTION('',(1.,0.,0.));
#745=DIRECTION('center_axis',(-1.,0.,0.));
#746=DIRECTION('ref_axis',(0.,-0.707106781186545,0.70710678118655));
#747=DIRECTION('',(1.,0.,0.));
#748=DIRECTION('',(-1.,0.,0.));
#749=DIRECTION('center_axis',(0.,0.,-1.));
#750=DIRECTION('ref_axis',(-0.707106781186548,-0.707106781186547,0.));
#751=DIRECTION('',(0.,0.,1.));
#752=DIRECTION('',(0.,0.,-1.));
#753=DIRECTION('center_axis',(0.,1.,0.));
#754=DIRECTION('ref_axis',(1.,0.,0.));
#755=DIRECTION('',(-1.,0.,0.));
#756=DIRECTION('center_axis',(0.,1.,0.));
#757=DIRECTION('ref_axis',(1.,0.,0.));
#758=DIRECTION('center_axis',(0.,0.,1.));
#759=DIRECTION('ref_axis',(1.,0.,0.));
#760=DIRECTION('center_axis',(1.,0.,0.));
#761=DIRECTION('ref_axis',(0.,0.,-1.));
#762=DIRECTION('center_axis',(0.,0.,-1.));
#763=DIRECTION('ref_axis',(-1.,0.,0.));
#764=DIRECTION('center_axis',(-1.,0.,0.));
#765=DIRECTION('ref_axis',(0.,0.,1.));
#766=DIRECTION('center_axis',(0.,1.,0.));
#767=DIRECTION('ref_axis',(0.,0.,1.));
#768=DIRECTION('center_axis',(0.,-1.,0.));
#769=DIRECTION('ref_axis',(1.,0.,0.));
#770=DIRECTION('center_axis',(0.,-1.,0.));
#771=DIRECTION('ref_axis',(0.,0.,-1.));
#772=DIRECTION('center_axis',(0.,0.,-1.));
#773=DIRECTION('ref_axis',(1.,0.,0.));
#774=DIRECTION('center_axis',(0.,1.,0.));
#775=DIRECTION('ref_axis',(1.,0.,0.));
#776=DIRECTION('',(0.,1.,0.));
#777=CARTESIAN_POINT('',(0.,0.,0.));
#778=CARTESIAN_POINT('Origin',(2.,-18.,78.));
#779=CARTESIAN_POINT('',(2.,-18.,80.));
#780=CARTESIAN_POINT('',(2.,-20.,78.));
#781=CARTESIAN_POINT('Origin',(2.,-18.,78.));
#782=CARTESIAN_POINT('',(0.,-18.,78.));
#783=CARTESIAN_POINT('Origin',(2.,-18.,78.));
#784=CARTESIAN_POINT('Origin',(2.,-18.,78.));
#785=CARTESIAN_POINT('Origin',(2.,3.,78.));
#786=CARTESIAN_POINT('',(0.,3.,78.));
#787=CARTESIAN_POINT('',(2.,5.,78.));
#788=CARTESIAN_POINT('Origin',(2.,3.,78.));
#789=CARTESIAN_POINT('',(2.,3.,80.));
#790=CARTESIAN_POINT('Origin',(2.,3.,78.));
#791=CARTESIAN_POINT('Origin',(2.,3.,78.));
#792=CARTESIAN_POINT('Origin',(2.,0.,78.));
#793=CARTESIAN_POINT('',(2.,0.,80.));
#794=CARTESIAN_POINT('',(0.,0.,78.));
#795=CARTESIAN_POINT('Origin',(2.,-18.,77.0000011175871));
#796=CARTESIAN_POINT('',(0.,-18.,77.0000011175871));
#797=CARTESIAN_POINT('',(2.,-20.,77.0000011175871));
#798=CARTESIAN_POINT('Origin',(2.,-18.,77.0000011175871));
#799=CARTESIAN_POINT('',(2.,-18.,75.0000011175871));
#800=CARTESIAN_POINT('Origin',(2.,-18.,77.0000011175871));
#801=CARTESIAN_POINT('Origin',(2.,-18.,77.0000011175871));
#802=CARTESIAN_POINT('Origin',(8.,-18.,78.));
#803=CARTESIAN_POINT('',(10.,-18.,78.));
#804=CARTESIAN_POINT('',(8.,-20.,78.));
#805=CARTESIAN_POINT('Origin',(8.,-18.,78.));
#806=CARTESIAN_POINT('',(8.,-18.,80.));
#807=CARTESIAN_POINT('Origin',(8.,-18.,78.));
#808=CARTESIAN_POINT('Origin',(8.,-18.,78.));
#809=CARTESIAN_POINT('Origin',(8.,3.,78.));
#810=CARTESIAN_POINT('',(8.,3.,80.));
#811=CARTESIAN_POINT('',(8.,5.,78.));
#812=CARTESIAN_POINT('Origin',(8.,3.,78.));
#813=CARTESIAN_POINT('',(10.,3.,78.));
#814=CARTESIAN_POINT('Origin',(8.,3.,78.));
#815=CARTESIAN_POINT('Origin',(8.,3.,78.));
#816=CARTESIAN_POINT('Origin',(8.,0.,78.));
#817=CARTESIAN_POINT('',(8.,0.,80.));
#818=CARTESIAN_POINT('',(10.,0.,78.));
#819=CARTESIAN_POINT('Origin',(2.,3.,2.));
#820=CARTESIAN_POINT('',(2.,3.,0.));
#821=CARTESIAN_POINT('',(2.,5.,2.));
#822=CARTESIAN_POINT('Origin',(2.,3.,2.));
#823=CARTESIAN_POINT('',(0.,3.,2.));
#824=CARTESIAN_POINT('Origin',(2.,3.,2.));
#825=CARTESIAN_POINT('Origin',(2.,3.,2.));
#826=CARTESIAN_POINT('Origin',(8.,-18.,77.0000011175871));
#827=CARTESIAN_POINT('',(8.,-18.,75.0000011175871));
#828=CARTESIAN_POINT('',(8.,-20.,77.0000011175871));
#829=CARTESIAN_POINT('Origin',(8.,-18.,77.0000011175871));
#830=CARTESIAN_POINT('',(10.,-18.,77.0000011175871));
#831=CARTESIAN_POINT('Origin',(8.,-18.,77.0000011175871));
#832=CARTESIAN_POINT('Origin',(8.,-18.,77.0000011175871));
#833=CARTESIAN_POINT('Origin',(8.,3.,2.));
#834=CARTESIAN_POINT('',(10.,3.,2.));
#835=CARTESIAN_POINT('',(8.,5.,2.));
#836=CARTESIAN_POINT('Origin',(8.,3.,2.));
#837=CARTESIAN_POINT('',(8.,3.,0.));
#838=CARTESIAN_POINT('Origin',(8.,3.,2.));
#839=CARTESIAN_POINT('Origin',(8.,3.,2.));
#840=CARTESIAN_POINT('Origin',(2.,2.,2.));
#841=CARTESIAN_POINT('',(2.,2.,0.));
#842=CARTESIAN_POINT('',(0.,2.,2.));
#843=CARTESIAN_POINT('Origin',(2.,2.,2.));
#844=CARTESIAN_POINT('',(2.,0.,2.));
#845=CARTESIAN_POINT('Origin',(2.,2.,2.));
#846=CARTESIAN_POINT('Origin',(2.,2.,2.));
#847=CARTESIAN_POINT('Origin',(8.,2.,2.));
#848=CARTESIAN_POINT('',(10.,2.,2.));
#849=CARTESIAN_POINT('',(8.,2.,0.));
#850=CARTESIAN_POINT('Origin',(8.,2.,2.));
#851=CARTESIAN_POINT('',(8.,0.,2.));
#852=CARTESIAN_POINT('Origin',(8.,2.,2.));
#853=CARTESIAN_POINT('Origin',(8.,2.,2.));
#854=CARTESIAN_POINT('Origin',(8.,2.,60.));
#855=CARTESIAN_POINT('',(8.,0.,75.0000011175871));
#856=CARTESIAN_POINT('',(8.,0.,60.));
#857=CARTESIAN_POINT('',(10.,2.,77.0000011175871));
#858=CARTESIAN_POINT('',(10.,2.,60.));
#859=CARTESIAN_POINT('Origin',(8.,2.,77.0000011175871));
#860=CARTESIAN_POINT('Origin',(7.5,2.,2.));
#861=CARTESIAN_POINT('',(7.5,0.,2.));
#862=CARTESIAN_POINT('',(7.5,2.,0.));
#863=CARTESIAN_POINT('Origin',(8.,0.,2.));
#864=CARTESIAN_POINT('',(10.,0.,2.));
#865=CARTESIAN_POINT('',(8.,0.,0.));
#866=CARTESIAN_POINT('Origin',(8.,0.,77.0000011175871));
#867=CARTESIAN_POINT('',(10.,0.,77.0000011175871));
#868=CARTESIAN_POINT('',(8.,0.,75.0000011175871));
#869=CARTESIAN_POINT('Origin',(2.,2.,20.));
#870=CARTESIAN_POINT('',(0.,2.,77.0000011175871));
#871=CARTESIAN_POINT('',(0.,2.,20.));
#872=CARTESIAN_POINT('',(2.,0.,75.0000011175871));
#873=CARTESIAN_POINT('',(2.,0.,20.));
#874=CARTESIAN_POINT('Origin',(2.,2.,77.0000011175871));
#875=CARTESIAN_POINT('Origin',(2.,0.,2.));
#876=CARTESIAN_POINT('',(2.,0.,0.));
#877=CARTESIAN_POINT('',(0.,0.,2.));
#878=CARTESIAN_POINT('Origin',(7.5,3.,2.));
#879=CARTESIAN_POINT('',(7.5,5.,2.));
#880=CARTESIAN_POINT('',(7.5,3.,0.));
#881=CARTESIAN_POINT('Origin',(8.,3.,60.));
#882=CARTESIAN_POINT('',(8.,5.,60.));
#883=CARTESIAN_POINT('',(10.,3.,60.));
#884=CARTESIAN_POINT('Origin',(8.,-18.,78.7500002793968));
#885=CARTESIAN_POINT('',(8.,-20.,78.7500002793968));
#886=CARTESIAN_POINT('',(10.,-18.,78.7500002793968));
#887=CARTESIAN_POINT('Origin',(2.5000000372529,-18.,77.0000011175871));
#888=CARTESIAN_POINT('',(2.5000000372529,-20.,77.0000011175871));
#889=CARTESIAN_POINT('',(2.5000000372529,-18.,75.0000011175871));
#890=CARTESIAN_POINT('Origin',(2.,0.,77.0000011175871));
#891=CARTESIAN_POINT('',(2.,0.,75.0000011175871));
#892=CARTESIAN_POINT('',(0.,0.,77.0000011175871));
#893=CARTESIAN_POINT('Origin',(2.,3.,20.));
#894=CARTESIAN_POINT('',(2.,5.,20.));
#895=CARTESIAN_POINT('',(0.,3.,20.));
#896=CARTESIAN_POINT('Origin',(2.5,3.,78.));
#897=CARTESIAN_POINT('',(2.5,5.,78.));
#898=CARTESIAN_POINT('',(2.5,3.,80.));
#899=CARTESIAN_POINT('Origin',(2.5000000372529,-18.,78.));
#900=CARTESIAN_POINT('',(2.5000000372529,-20.,78.));
#901=CARTESIAN_POINT('',(2.5000000372529,-18.,80.));
#902=CARTESIAN_POINT('Origin',(2.,-18.,38.7500002793968));
#903=CARTESIAN_POINT('',(2.,-20.,38.7500002793968));
#904=CARTESIAN_POINT('',(0.,-18.,38.7500002793968));
#905=CARTESIAN_POINT('Origin',(5.,0.,40.));
#906=CARTESIAN_POINT('',(2.5,0.,75.0000011175871));
#907=CARTESIAN_POINT('',(3.35,0.,5.));
#908=CARTESIAN_POINT('Origin',(5.,0.,5.));
#909=CARTESIAN_POINT('Origin',(0.,0.,80.));
#910=CARTESIAN_POINT('Origin',(10.,0.,80.));
#911=CARTESIAN_POINT('Origin',(10.,0.,0.));
#912=CARTESIAN_POINT('Origin',(0.,0.,0.));
#913=CARTESIAN_POINT('Origin',(5.,5.,40.));
#914=CARTESIAN_POINT('',(3.35,5.,5.));
#915=CARTESIAN_POINT('Origin',(5.,5.,5.));
#916=CARTESIAN_POINT('Origin',(5.00000007450581,-20.,77.5000005587935));
#917=CARTESIAN_POINT('Origin',(0.,0.,75.0000011175871));
#918=CARTESIAN_POINT('Origin',(5.,0.,5.));
#919=CARTESIAN_POINT('',(3.35,0.,5.));
#920=UNCERTAINTY_MEASURE_WITH_UNIT(LENGTH_MEASURE(0.01),#924,
'DISTANCE_ACCURACY_VALUE',
'Maximum model space distance between geometric entities at asserted c
onnectivities');
#921=UNCERTAINTY_MEASURE_WITH_UNIT(LENGTH_MEASURE(0.01),#924,
'DISTANCE_ACCURACY_VALUE',
'Maximum model space distance between geometric entities at asserted c
onnectivities');
#922=(
GEOMETRIC_REPRESENTATION_CONTEXT(3)
GLOBAL_UNCERTAINTY_ASSIGNED_CONTEXT((#920))
GLOBAL_UNIT_ASSIGNED_CONTEXT((#924,#926,#927))
REPRESENTATION_CONTEXT('','3D')
);
#923=(
GEOMETRIC_REPRESENTATION_CONTEXT(3)
GLOBAL_UNCERTAINTY_ASSIGNED_CONTEXT((#921))
GLOBAL_UNIT_ASSIGNED_CONTEXT((#924,#926,#927))
REPRESENTATION_CONTEXT('','3D')
);
#924=(
LENGTH_UNIT()
NAMED_UNIT(*)
SI_UNIT(.MILLI.,.METRE.)
);
#925=(
LENGTH_UNIT()
NAMED_UNIT(*)
SI_UNIT($,.METRE.)
);
#926=(
NAMED_UNIT(*)
PLANE_ANGLE_UNIT()
SI_UNIT($,.RADIAN.)
);
#927=(
NAMED_UNIT(*)
SI_UNIT($,.STERADIAN.)
SOLID_ANGLE_UNIT()
);
#928=SHAPE_DEFINITION_REPRESENTATION(#929,#930);
#929=PRODUCT_DEFINITION_SHAPE('',$,#932);
#930=SHAPE_REPRESENTATION('',(#528),#922);
#931=PRODUCT_DEFINITION_CONTEXT('part definition',#936,'design');
#932=PRODUCT_DEFINITION('2026-07-25-09-07-43-538','Lateral Arm',#933,#931);
#933=PRODUCT_DEFINITION_FORMATION('',$,#938);
#934=PRODUCT_RELATED_PRODUCT_CATEGORY('Lateral Arm','Lateral Arm',(#938));
#935=APPLICATION_PROTOCOL_DEFINITION('international standard',
'automotive_design',2009,#936);
#936=APPLICATION_CONTEXT(
'Core Data for Automotive Mechanical Design Process');
#937=PRODUCT_CONTEXT('part definition',#936,'mechanical');
#938=PRODUCT('2026-07-25-09-07-43-538','Lateral Arm',$,(#937));
#939=PRESENTATION_STYLE_ASSIGNMENT((#940));
#940=SURFACE_STYLE_USAGE(.BOTH.,#941);
#941=SURFACE_SIDE_STYLE('',(#942));
#942=SURFACE_STYLE_FILL_AREA(#943);
#943=FILL_AREA_STYLE('Steel - Satin',(#944));
#944=FILL_AREA_STYLE_COLOUR('Steel - Satin',#945);
#945=COLOUR_RGB('Steel - Satin',0.627450980392157,0.627450980392157,0.627450980392157);
ENDSEC;
END-ISO-10303-21;
