ISO-10303-21;
HEADER;
/* Generated by software containing ST-Developer
 * from STEP Tools, Inc. (www.steptools.com) 
 */

FILE_DESCRIPTION(
/* description */ (''),
/* implementation_level */ '2;1');

FILE_NAME(
/* name */ 'Vertical Arm.step',
/* time_stamp */ '2026-07-25T10:07:48-04:00',
/* author */ (''),
/* organization */ (''),
/* preprocessor_version */ 'ST-DEVELOPER v20.1',
/* originating_system */ 'Autodesk Translation Framework v15.8.0.0',
/* authorisation */ '');

FILE_SCHEMA (('AUTOMOTIVE_DESIGN { 1 0 10303 214 3 1 1 }'));
ENDSEC;

DATA;
#10=MECHANICAL_DESIGN_GEOMETRIC_PRESENTATION_REPRESENTATION('',(#15,#16),
#391);
#11=SHAPE_REPRESENTATION_RELATIONSHIP('SRR','None',#398,#12);
#12=ADVANCED_BREP_SHAPE_REPRESENTATION('',(#17,#18),#390);
#13=TOROIDAL_SURFACE('',#242,23.,2.);
#14=TOROIDAL_SURFACE('',#252,23.,2.);
#15=STYLED_ITEM('',(#407),#17);
#16=STYLED_ITEM('',(#407),#18);
#17=MANIFOLD_SOLID_BREP('Body1',#214);
#18=MANIFOLD_SOLID_BREP('Body2',#215);
#19=CYLINDRICAL_SURFACE('',#234,2.);
#20=CYLINDRICAL_SURFACE('',#238,2.);
#21=CYLINDRICAL_SURFACE('',#240,1.65);
#22=CYLINDRICAL_SURFACE('',#247,25.);
#23=CYLINDRICAL_SURFACE('',#257,1.65);
#24=FACE_BOUND('',#43,.T.);
#25=FACE_BOUND('',#46,.T.);
#26=FACE_BOUND('',#53,.T.);
#27=FACE_BOUND('',#56,.T.);
#28=FACE_OUTER_BOUND('',#41,.T.);
#29=FACE_OUTER_BOUND('',#42,.T.);
#30=FACE_OUTER_BOUND('',#44,.T.);
#31=FACE_OUTER_BOUND('',#45,.T.);
#32=FACE_OUTER_BOUND('',#47,.T.);
#33=FACE_OUTER_BOUND('',#48,.T.);
#34=FACE_OUTER_BOUND('',#49,.T.);
#35=FACE_OUTER_BOUND('',#50,.T.);
#36=FACE_OUTER_BOUND('',#51,.T.);
#37=FACE_OUTER_BOUND('',#52,.T.);
#38=FACE_OUTER_BOUND('',#54,.T.);
#39=FACE_OUTER_BOUND('',#55,.T.);
#40=FACE_OUTER_BOUND('',#57,.T.);
#41=EDGE_LOOP('',(#141,#142,#143,#144));
#42=EDGE_LOOP('',(#145,#146,#147,#148));
#43=EDGE_LOOP('',(#149));
#44=EDGE_LOOP('',(#150,#151,#152,#153));
#45=EDGE_LOOP('',(#154,#155,#156,#157));
#46=EDGE_LOOP('',(#158));
#47=EDGE_LOOP('',(#159,#160,#161,#162));
#48=EDGE_LOOP('',(#163,#164,#165,#166));
#49=EDGE_LOOP('',(#167,#168,#169,#170));
#50=EDGE_LOOP('',(#171,#172,#173,#174,#175));
#51=EDGE_LOOP('',(#176,#177,#178,#179,#180,#181));
#52=EDGE_LOOP('',(#182));
#53=EDGE_LOOP('',(#183));
#54=EDGE_LOOP('',(#184,#185,#186,#187,#188));
#55=EDGE_LOOP('',(#189));
#56=EDGE_LOOP('',(#190));
#57=EDGE_LOOP('',(#191,#192,#193,#194));
#58=LINE('',#335,#69);
#59=LINE('',#338,#70);
#60=LINE('',#341,#71);
#61=LINE('',#343,#72);
#62=LINE('',#344,#73);
#63=LINE('',#350,#74);
#64=LINE('',#353,#75);
#65=LINE('',#354,#76);
#66=LINE('',#360,#77);
#67=LINE('',#372,#78);
#68=LINE('',#387,#79);
#69=VECTOR('',#264,10.);
#70=VECTOR('',#267,10.);
#71=VECTOR('',#270,10.);
#72=VECTOR('',#271,10.);
#73=VECTOR('',#272,10.);
#74=VECTOR('',#279,10.);
#75=VECTOR('',#282,10.);
#76=VECTOR('',#283,10.);
#77=VECTOR('',#292,1.65);
#78=VECTOR('',#307,25.);
#79=VECTOR('',#328,1.65);
#80=CIRCLE('',#230,2.);
#81=CIRCLE('',#231,2.);
#82=CIRCLE('',#233,1.65);
#83=CIRCLE('',#235,2.);
#84=CIRCLE('',#237,1.65);
#85=CIRCLE('',#239,2.);
#86=CIRCLE('',#243,23.);
#87=CIRCLE('',#244,2.);
#88=CIRCLE('',#245,25.);
#89=CIRCLE('',#246,25.);
#90=CIRCLE('',#248,25.);
#91=CIRCLE('',#249,25.);
#92=CIRCLE('',#251,1.65);
#93=CIRCLE('',#253,2.);
#94=CIRCLE('',#254,23.);
#95=CIRCLE('',#256,1.65);
#96=VERTEX_POINT('',#331);
#97=VERTEX_POINT('',#332);
#98=VERTEX_POINT('',#334);
#99=VERTEX_POINT('',#336);
#100=VERTEX_POINT('',#340);
#101=VERTEX_POINT('',#342);
#102=VERTEX_POINT('',#345);
#103=VERTEX_POINT('',#348);
#104=VERTEX_POINT('',#352);
#105=VERTEX_POINT('',#355);
#106=VERTEX_POINT('',#363);
#107=VERTEX_POINT('',#365);
#108=VERTEX_POINT('',#367);
#109=VERTEX_POINT('',#371);
#110=VERTEX_POINT('',#373);
#111=VERTEX_POINT('',#377);
#112=VERTEX_POINT('',#380);
#113=VERTEX_POINT('',#384);
#114=EDGE_CURVE('',#96,#97,#80,.T.);
#115=EDGE_CURVE('',#96,#98,#58,.T.);
#116=EDGE_CURVE('',#99,#98,#81,.T.);
#117=EDGE_CURVE('',#99,#97,#59,.T.);
#118=EDGE_CURVE('',#100,#96,#60,.T.);
#119=EDGE_CURVE('',#101,#100,#61,.T.);
#120=EDGE_CURVE('',#98,#101,#62,.T.);
#121=EDGE_CURVE('',#102,#102,#82,.T.);
#122=EDGE_CURVE('',#103,#100,#83,.T.);
#123=EDGE_CURVE('',#97,#103,#63,.T.);
#124=EDGE_CURVE('',#104,#99,#64,.T.);
#125=EDGE_CURVE('',#103,#104,#65,.T.);
#126=EDGE_CURVE('',#105,#105,#84,.T.);
#127=EDGE_CURVE('',#101,#104,#85,.T.);
#128=EDGE_CURVE('',#105,#102,#66,.T.);
#129=EDGE_CURVE('',#106,#106,#86,.T.);
#130=EDGE_CURVE('',#106,#107,#87,.T.);
#131=EDGE_CURVE('',#107,#108,#88,.T.);
#132=EDGE_CURVE('',#108,#107,#89,.T.);
#133=EDGE_CURVE('',#108,#109,#67,.T.);
#134=EDGE_CURVE('',#110,#109,#90,.T.);
#135=EDGE_CURVE('',#109,#110,#91,.T.);
#136=EDGE_CURVE('',#111,#111,#92,.T.);
#137=EDGE_CURVE('',#110,#112,#93,.T.);
#138=EDGE_CURVE('',#112,#112,#94,.T.);
#139=EDGE_CURVE('',#113,#113,#95,.T.);
#140=EDGE_CURVE('',#113,#111,#68,.T.);
#141=ORIENTED_EDGE('',*,*,#114,.F.);
#142=ORIENTED_EDGE('',*,*,#115,.T.);
#143=ORIENTED_EDGE('',*,*,#116,.F.);
#144=ORIENTED_EDGE('',*,*,#117,.T.);
#145=ORIENTED_EDGE('',*,*,#118,.F.);
#146=ORIENTED_EDGE('',*,*,#119,.F.);
#147=ORIENTED_EDGE('',*,*,#120,.F.);
#148=ORIENTED_EDGE('',*,*,#115,.F.);
#149=ORIENTED_EDGE('',*,*,#121,.T.);
#150=ORIENTED_EDGE('',*,*,#122,.T.);
#151=ORIENTED_EDGE('',*,*,#118,.T.);
#152=ORIENTED_EDGE('',*,*,#114,.T.);
#153=ORIENTED_EDGE('',*,*,#123,.T.);
#154=ORIENTED_EDGE('',*,*,#123,.F.);
#155=ORIENTED_EDGE('',*,*,#117,.F.);
#156=ORIENTED_EDGE('',*,*,#124,.F.);
#157=ORIENTED_EDGE('',*,*,#125,.F.);
#158=ORIENTED_EDGE('',*,*,#126,.T.);
#159=ORIENTED_EDGE('',*,*,#127,.T.);
#160=ORIENTED_EDGE('',*,*,#124,.T.);
#161=ORIENTED_EDGE('',*,*,#116,.T.);
#162=ORIENTED_EDGE('',*,*,#120,.T.);
#163=ORIENTED_EDGE('',*,*,#126,.F.);
#164=ORIENTED_EDGE('',*,*,#128,.T.);
#165=ORIENTED_EDGE('',*,*,#121,.F.);
#166=ORIENTED_EDGE('',*,*,#128,.F.);
#167=ORIENTED_EDGE('',*,*,#122,.F.);
#168=ORIENTED_EDGE('',*,*,#125,.T.);
#169=ORIENTED_EDGE('',*,*,#127,.F.);
#170=ORIENTED_EDGE('',*,*,#119,.T.);
#171=ORIENTED_EDGE('',*,*,#129,.T.);
#172=ORIENTED_EDGE('',*,*,#130,.T.);
#173=ORIENTED_EDGE('',*,*,#131,.T.);
#174=ORIENTED_EDGE('',*,*,#132,.T.);
#175=ORIENTED_EDGE('',*,*,#130,.F.);
#176=ORIENTED_EDGE('',*,*,#132,.F.);
#177=ORIENTED_EDGE('',*,*,#133,.T.);
#178=ORIENTED_EDGE('',*,*,#134,.F.);
#179=ORIENTED_EDGE('',*,*,#135,.F.);
#180=ORIENTED_EDGE('',*,*,#133,.F.);
#181=ORIENTED_EDGE('',*,*,#131,.F.);
#182=ORIENTED_EDGE('',*,*,#129,.F.);
#183=ORIENTED_EDGE('',*,*,#136,.T.);
#184=ORIENTED_EDGE('',*,*,#135,.T.);
#185=ORIENTED_EDGE('',*,*,#137,.T.);
#186=ORIENTED_EDGE('',*,*,#138,.T.);
#187=ORIENTED_EDGE('',*,*,#137,.F.);
#188=ORIENTED_EDGE('',*,*,#134,.T.);
#189=ORIENTED_EDGE('',*,*,#138,.F.);
#190=ORIENTED_EDGE('',*,*,#139,.T.);
#191=ORIENTED_EDGE('',*,*,#139,.F.);
#192=ORIENTED_EDGE('',*,*,#140,.T.);
#193=ORIENTED_EDGE('',*,*,#136,.F.);
#194=ORIENTED_EDGE('',*,*,#140,.F.);
#195=PLANE('',#229);
#196=PLANE('',#232);
#197=PLANE('',#236);
#198=PLANE('',#241);
#199=PLANE('',#250);
#200=PLANE('',#255);
#201=ADVANCED_FACE('',(#28),#195,.F.);
#202=ADVANCED_FACE('',(#29,#24),#196,.T.);
#203=ADVANCED_FACE('',(#30),#19,.T.);
#204=ADVANCED_FACE('',(#31,#25),#197,.T.);
#205=ADVANCED_FACE('',(#32),#20,.T.);
#206=ADVANCED_FACE('',(#33),#21,.F.);
#207=ADVANCED_FACE('',(#34),#198,.T.);
#208=ADVANCED_FACE('',(#35),#13,.T.);
#209=ADVANCED_FACE('',(#36),#22,.T.);
#210=ADVANCED_FACE('',(#37,#26),#199,.T.);
#211=ADVANCED_FACE('',(#38),#14,.T.);
#212=ADVANCED_FACE('',(#39,#27),#200,.F.);
#213=ADVANCED_FACE('',(#40),#23,.F.);
#214=CLOSED_SHELL('',(#201,#202,#203,#204,#205,#206,#207));
#215=CLOSED_SHELL('',(#208,#209,#210,#211,#212,#213));
#216=DERIVED_UNIT_ELEMENT(#218,1.);
#217=DERIVED_UNIT_ELEMENT(#393,-3.);
#218=(
MASS_UNIT()
NAMED_UNIT(*)
SI_UNIT(.KILO.,.GRAM.)
);
#219=DERIVED_UNIT((#216,#217));
#220=MEASURE_REPRESENTATION_ITEM('density measure',
POSITIVE_RATIO_MEASURE(7850.),#219);
#221=PROPERTY_DEFINITION_REPRESENTATION(#226,#223);
#222=PROPERTY_DEFINITION_REPRESENTATION(#227,#224);
#223=REPRESENTATION('material name',(#225),#390);
#224=REPRESENTATION('density',(#220),#390);
#225=DESCRIPTIVE_REPRESENTATION_ITEM('Steel','Steel');
#226=PROPERTY_DEFINITION('material property','material name',#400);
#227=PROPERTY_DEFINITION('material property','density of part',#400);
#228=AXIS2_PLACEMENT_3D('',#329,#258,#259);
#229=AXIS2_PLACEMENT_3D('',#330,#260,#261);
#230=AXIS2_PLACEMENT_3D('',#333,#262,#263);
#231=AXIS2_PLACEMENT_3D('',#337,#265,#266);
#232=AXIS2_PLACEMENT_3D('',#339,#268,#269);
#233=AXIS2_PLACEMENT_3D('',#346,#273,#274);
#234=AXIS2_PLACEMENT_3D('',#347,#275,#276);
#235=AXIS2_PLACEMENT_3D('',#349,#277,#278);
#236=AXIS2_PLACEMENT_3D('',#351,#280,#281);
#237=AXIS2_PLACEMENT_3D('',#356,#284,#285);
#238=AXIS2_PLACEMENT_3D('',#357,#286,#287);
#239=AXIS2_PLACEMENT_3D('',#358,#288,#289);
#240=AXIS2_PLACEMENT_3D('',#359,#290,#291);
#241=AXIS2_PLACEMENT_3D('',#361,#293,#294);
#242=AXIS2_PLACEMENT_3D('',#362,#295,#296);
#243=AXIS2_PLACEMENT_3D('',#364,#297,#298);
#244=AXIS2_PLACEMENT_3D('',#366,#299,#300);
#245=AXIS2_PLACEMENT_3D('',#368,#301,#302);
#246=AXIS2_PLACEMENT_3D('',#369,#303,#304);
#247=AXIS2_PLACEMENT_3D('',#370,#305,#306);
#248=AXIS2_PLACEMENT_3D('',#374,#308,#309);
#249=AXIS2_PLACEMENT_3D('',#375,#310,#311);
#250=AXIS2_PLACEMENT_3D('',#376,#312,#313);
#251=AXIS2_PLACEMENT_3D('',#378,#314,#315);
#252=AXIS2_PLACEMENT_3D('',#379,#316,#317);
#253=AXIS2_PLACEMENT_3D('',#381,#318,#319);
#254=AXIS2_PLACEMENT_3D('',#382,#320,#321);
#255=AXIS2_PLACEMENT_3D('',#383,#322,#323);
#256=AXIS2_PLACEMENT_3D('',#385,#324,#325);
#257=AXIS2_PLACEMENT_3D('',#386,#326,#327);
#258=DIRECTION('axis',(0.,0.,1.));
#259=DIRECTION('refdir',(1.,0.,0.));
#260=DIRECTION('center_axis',(0.,0.,1.));
#261=DIRECTION('ref_axis',(1.,0.,0.));
#262=DIRECTION('center_axis',(0.,0.,1.));
#263=DIRECTION('ref_axis',(-0.707106781186548,0.707106781186548,0.));
#264=DIRECTION('',(1.,0.,0.));
#265=DIRECTION('center_axis',(0.,0.,1.));
#266=DIRECTION('ref_axis',(0.707106781186547,-0.707106781186548,0.));
#267=DIRECTION('',(-1.,0.,0.));
#268=DIRECTION('center_axis',(0.,1.,0.));
#269=DIRECTION('ref_axis',(-1.,0.,0.));
#270=DIRECTION('',(0.,0.,-1.));
#271=DIRECTION('',(-1.,0.,0.));
#272=DIRECTION('',(0.,0.,1.));
#273=DIRECTION('center_axis',(0.,-1.,0.));
#274=DIRECTION('ref_axis',(1.,0.,0.));
#275=DIRECTION('center_axis',(0.,0.,1.));
#276=DIRECTION('ref_axis',(-0.707106781186548,-0.707106781186547,0.));
#277=DIRECTION('center_axis',(0.,0.,-1.));
#278=DIRECTION('ref_axis',(-0.707106781186548,0.707106781186548,0.));
#279=DIRECTION('',(0.,0.,1.));
#280=DIRECTION('center_axis',(0.,-1.,0.));
#281=DIRECTION('ref_axis',(1.,0.,0.));
#282=DIRECTION('',(0.,0.,-1.));
#283=DIRECTION('',(1.,0.,0.));
#284=DIRECTION('center_axis',(0.,1.,0.));
#285=DIRECTION('ref_axis',(1.,0.,0.));
#286=DIRECTION('center_axis',(0.,0.,1.));
#287=DIRECTION('ref_axis',(0.707106781186547,-0.707106781186548,0.));
#288=DIRECTION('center_axis',(0.,0.,-1.));
#289=DIRECTION('ref_axis',(0.707106781186547,0.707106781186548,0.));
#290=DIRECTION('center_axis',(0.,1.,0.));
#291=DIRECTION('ref_axis',(1.,0.,0.));
#292=DIRECTION('',(0.,1.,0.));
#293=DIRECTION('center_axis',(0.,0.,1.));
#294=DIRECTION('ref_axis',(1.,0.,0.));
#295=DIRECTION('center_axis',(1.,0.,0.));
#296=DIRECTION('ref_axis',(0.,0.,-1.));
#297=DIRECTION('center_axis',(-1.,0.,0.));
#298=DIRECTION('ref_axis',(0.,1.,0.));
#299=DIRECTION('center_axis',(0.,-1.,-1.22124532708767E-16));
#300=DIRECTION('ref_axis',(0.,-1.22124532708767E-16,1.));
#301=DIRECTION('center_axis',(1.,0.,0.));
#302=DIRECTION('ref_axis',(0.,1.,0.));
#303=DIRECTION('center_axis',(1.,0.,0.));
#304=DIRECTION('ref_axis',(0.,1.,0.));
#305=DIRECTION('center_axis',(1.,0.,0.));
#306=DIRECTION('ref_axis',(0.,1.,0.));
#307=DIRECTION('',(-1.,0.,0.));
#308=DIRECTION('center_axis',(-1.,0.,0.));
#309=DIRECTION('ref_axis',(0.,1.,0.));
#310=DIRECTION('center_axis',(-1.,0.,0.));
#311=DIRECTION('ref_axis',(0.,1.,0.));
#312=DIRECTION('center_axis',(1.,0.,0.));
#313=DIRECTION('ref_axis',(0.,1.,0.));
#314=DIRECTION('center_axis',(-1.,0.,0.));
#315=DIRECTION('ref_axis',(0.,-1.,0.));
#316=DIRECTION('center_axis',(1.,0.,0.));
#317=DIRECTION('ref_axis',(0.,0.,-1.));
#318=DIRECTION('center_axis',(0.,-1.,-1.22124532708767E-16));
#319=DIRECTION('ref_axis',(0.,-1.22124532708767E-16,1.));
#320=DIRECTION('center_axis',(1.,0.,0.));
#321=DIRECTION('ref_axis',(0.,1.,0.));
#322=DIRECTION('center_axis',(1.,0.,0.));
#323=DIRECTION('ref_axis',(0.,1.,0.));
#324=DIRECTION('center_axis',(1.,0.,0.));
#325=DIRECTION('ref_axis',(0.,-1.,0.));
#326=DIRECTION('center_axis',(1.,0.,0.));
#327=DIRECTION('ref_axis',(0.,-1.,0.));
#328=DIRECTION('',(1.,0.,0.));
#329=CARTESIAN_POINT('',(0.,0.,0.));
#330=CARTESIAN_POINT('Origin',(5.,-2.,0.));
#331=CARTESIAN_POINT('',(2.,0.,0.));
#332=CARTESIAN_POINT('',(2.,-4.,0.));
#333=CARTESIAN_POINT('Origin',(2.,-2.,0.));
#334=CARTESIAN_POINT('',(8.,0.,0.));
#335=CARTESIAN_POINT('',(0.,0.,0.));
#336=CARTESIAN_POINT('',(8.,-4.,0.));
#337=CARTESIAN_POINT('Origin',(8.,-2.,0.));
#338=CARTESIAN_POINT('',(10.,-4.,0.));
#339=CARTESIAN_POINT('Origin',(10.,0.,0.));
#340=CARTESIAN_POINT('',(2.,0.,300.));
#341=CARTESIAN_POINT('',(2.,0.,0.));
#342=CARTESIAN_POINT('',(8.,0.,300.));
#343=CARTESIAN_POINT('',(0.,0.,300.));
#344=CARTESIAN_POINT('',(8.,0.,0.));
#345=CARTESIAN_POINT('',(3.3500000745058,5.55111512312578E-16,295.000004395843));
#346=CARTESIAN_POINT('Origin',(5.00000007450581,0.,295.000004395843));
#347=CARTESIAN_POINT('Origin',(2.,-2.,0.));
#348=CARTESIAN_POINT('',(2.,-4.,300.));
#349=CARTESIAN_POINT('Origin',(2.,-2.,300.));
#350=CARTESIAN_POINT('',(2.,-4.,0.));
#351=CARTESIAN_POINT('Origin',(0.,-4.,0.));
#352=CARTESIAN_POINT('',(8.,-4.,300.));
#353=CARTESIAN_POINT('',(8.,-4.,0.));
#354=CARTESIAN_POINT('',(10.,-4.,300.));
#355=CARTESIAN_POINT('',(3.3500000745058,-4.,295.000004395843));
#356=CARTESIAN_POINT('Origin',(5.00000007450581,-4.,295.000004395843));
#357=CARTESIAN_POINT('Origin',(8.,-2.,0.));
#358=CARTESIAN_POINT('Origin',(8.,-2.,300.));
#359=CARTESIAN_POINT('Origin',(5.00000007450581,-4.,295.000004395843));
#360=CARTESIAN_POINT('',(3.3500000745058,-4.,295.000004395843));
#361=CARTESIAN_POINT('Origin',(5.,-2.,300.));
#362=CARTESIAN_POINT('Origin',(4.,-1.99999999999999,-5.));
#363=CARTESIAN_POINT('',(6.,-2.,18.));
#364=CARTESIAN_POINT('Origin',(6.,-1.99999999999999,-5.));
#365=CARTESIAN_POINT('',(4.,-2.,20.));
#366=CARTESIAN_POINT('Origin',(4.,-2.,18.));
#367=CARTESIAN_POINT('',(4.,-27.,-5.));
#368=CARTESIAN_POINT('Origin',(4.,-1.99999999999999,-5.));
#369=CARTESIAN_POINT('Origin',(4.,-1.99999999999999,-5.));
#370=CARTESIAN_POINT('Origin',(-2.,-1.99999999999999,-5.));
#371=CARTESIAN_POINT('',(0.,-27.,-5.));
#372=CARTESIAN_POINT('',(-2.,-27.,-5.));
#373=CARTESIAN_POINT('',(0.,-2.,20.));
#374=CARTESIAN_POINT('Origin',(0.,-1.99999999999999,-5.));
#375=CARTESIAN_POINT('Origin',(0.,-1.99999999999999,-5.));
#376=CARTESIAN_POINT('Origin',(6.,-1.99999999999999,-5.));
#377=CARTESIAN_POINT('',(6.,-0.349999999999993,-5.));
#378=CARTESIAN_POINT('Origin',(6.,-1.99999999999999,-5.));
#379=CARTESIAN_POINT('Origin',(0.,-1.99999999999999,-5.));
#380=CARTESIAN_POINT('',(-2.,-2.,18.));
#381=CARTESIAN_POINT('Origin',(0.,-2.,18.));
#382=CARTESIAN_POINT('Origin',(-2.,-1.99999999999999,-5.));
#383=CARTESIAN_POINT('Origin',(-2.,-1.99999999999999,-5.));
#384=CARTESIAN_POINT('',(-2.,-0.349999999999993,-5.));
#385=CARTESIAN_POINT('Origin',(-2.,-1.99999999999999,-5.));
#386=CARTESIAN_POINT('Origin',(-2.,-1.99999999999999,-5.));
#387=CARTESIAN_POINT('',(-2.,-0.349999999999993,-5.));
#388=UNCERTAINTY_MEASURE_WITH_UNIT(LENGTH_MEASURE(0.01),#392,
'DISTANCE_ACCURACY_VALUE',
'Maximum model space distance between geometric entities at asserted c
onnectivities');
#389=UNCERTAINTY_MEASURE_WITH_UNIT(LENGTH_MEASURE(0.01),#392,
'DISTANCE_ACCURACY_VALUE',
'Maximum model space distance between geometric entities at asserted c
onnectivities');
#390=(
GEOMETRIC_REPRESENTATION_CONTEXT(3)
GLOBAL_UNCERTAINTY_ASSIGNED_CONTEXT((#388))
GLOBAL_UNIT_ASSIGNED_CONTEXT((#392,#394,#395))
REPRESENTATION_CONTEXT('','3D')
);
#391=(
GEOMETRIC_REPRESENTATION_CONTEXT(3)
GLOBAL_UNCERTAINTY_ASSIGNED_CONTEXT((#389))
GLOBAL_UNIT_ASSIGNED_CONTEXT((#392,#394,#395))
REPRESENTATION_CONTEXT('','3D')
);
#392=(
LENGTH_UNIT()
NAMED_UNIT(*)
SI_UNIT(.MILLI.,.METRE.)
);
#393=(
LENGTH_UNIT()
NAMED_UNIT(*)
SI_UNIT($,.METRE.)
);
#394=(
NAMED_UNIT(*)
PLANE_ANGLE_UNIT()
SI_UNIT($,.RADIAN.)
);
#395=(
NAMED_UNIT(*)
SI_UNIT($,.STERADIAN.)
SOLID_ANGLE_UNIT()
);
#396=SHAPE_DEFINITION_REPRESENTATION(#397,#398);
#397=PRODUCT_DEFINITION_SHAPE('',$,#400);
#398=SHAPE_REPRESENTATION('',(#228),#390);
#399=PRODUCT_DEFINITION_CONTEXT('part definition',#404,'design');
#400=PRODUCT_DEFINITION('2026-07-24-17-41-38-283','Vertical Arm',#401,#399);
#401=PRODUCT_DEFINITION_FORMATION('',$,#406);
#402=PRODUCT_RELATED_PRODUCT_CATEGORY('Vertical Arm','Vertical Arm',(#406));
#403=APPLICATION_PROTOCOL_DEFINITION('international standard',
'automotive_design',2009,#404);
#404=APPLICATION_CONTEXT(
'Core Data for Automotive Mechanical Design Process');
#405=PRODUCT_CONTEXT('part definition',#404,'mechanical');
#406=PRODUCT('2026-07-24-17-41-38-283','Vertical Arm',$,(#405));
#407=PRESENTATION_STYLE_ASSIGNMENT((#408));
#408=SURFACE_STYLE_USAGE(.BOTH.,#409);
#409=SURFACE_SIDE_STYLE('',(#410));
#410=SURFACE_STYLE_FILL_AREA(#411);
#411=FILL_AREA_STYLE('Steel - Satin',(#412));
#412=FILL_AREA_STYLE_COLOUR('Steel - Satin',#413);
#413=COLOUR_RGB('Steel - Satin',0.627450980392157,0.627450980392157,0.627450980392157);
ENDSEC;
END-ISO-10303-21;
